<svg width="204" height="118" viewBox="0 0 204 118" fill="none" xmlns="http://www.w3.org/2000/svg">
<g opacity="0.15" clip-path="url(#clip0_31_36)">
<path d="M168.646 24.8147C168.655 24.7683 168.673 24.7243 168.701 24.6858C168.728 24.6472 168.763 24.6149 168.804 24.591C168.844 24.5671 168.89 24.5522 168.936 24.5472C168.983 24.5422 169.03 24.5473 169.075 24.5621C169.075 24.5621 172.062 25.4204 174.901 26.2358C174.562 25.313 174.115 24.4342 173.568 23.6179C173.464 23.6763 173.344 23.7 173.225 23.6855C173.107 23.6711 172.996 23.6193 172.908 23.5376C172.821 23.4559 172.761 23.3484 172.739 23.2307C172.716 23.1129 172.731 22.9909 172.781 22.8822C172.561 22.7108 172.35 22.5282 172.149 22.3353C171.762 21.9601 172.163 21.515 171.956 21.2231C171.748 20.9313 171.513 20.7498 171.277 20.4028C171.042 20.0558 170.738 19.6793 170.461 19.1925C170.184 18.7057 170.321 17.9271 170.321 17.9271C170.502 18.7854 170.917 19.1239 170.917 19.1239C170.682 18.859 170.461 17.8584 170.461 17.8584L170.668 17.65C171.034 17.8854 171.767 19.6242 171.692 19.3875C171.618 19.1508 171.36 18.4556 171.204 18.2618C171.052 18.027 170.918 17.781 170.802 17.5261L171.169 17.249L171.432 17.6659C171.432 17.6659 171.28 17.2343 171.335 17.1374C171.388 17.0677 171.46 17.0145 171.542 16.9841C171.542 16.9841 171.474 16.8873 171.653 17.1068C171.833 17.3263 171.972 18.2618 171.972 18.2618C172.124 17.7468 171.917 16.9265 171.917 16.9265C172.115 17.3424 172.205 17.8017 172.179 18.2618C172.151 18.7523 172.594 19.5408 172.594 19.5408C172.705 19.9994 172.927 20.5561 173.01 20.8062C173.067 21.0241 173.076 21.2516 173.037 21.4733C173.024 21.6547 173.052 21.7651 173.203 22.0165C173.293 22.185 173.356 22.3661 173.392 22.5536C173.506 22.5717 173.611 22.6239 173.693 22.7033C173.776 22.7826 173.833 22.8855 173.857 22.9981C173.88 23.1107 173.869 23.2278 173.825 23.3339C173.78 23.44 173.705 23.5301 173.609 23.5921C174.255 24.4031 174.766 25.3142 175.121 26.2898C177.154 26.8698 179.069 27.4118 179.704 27.5749C181.242 27.9697 181.994 28.3645 181.994 28.3645C181.492 32.606 179.668 39.9031 179.668 39.9031C179.31 39.5794 176.055 38.7885 175.875 38.7885C175.696 38.7885 174.945 38.9687 174.802 38.932C174.659 38.8952 174.515 39.1122 172.655 38.7174C170.795 38.3225 170.043 37.0632 170.043 37.0632C169.543 36.9198 166.286 35.913 166.286 35.913C166.286 35.913 168.542 25.1764 168.646 24.8147Z" fill="#B8BABB"/>
<path d="M123.756 48.5491C124.175 48.435 124.061 48.1285 124.061 48.1285L122.994 47.6306C122.994 47.6306 121.736 48.2045 121.355 48.6263C120.974 49.0481 120.974 48.8556 120.974 48.8556C120.956 48.7546 120.961 48.6508 120.987 48.5516C121.013 48.4524 121.061 48.3603 121.127 48.2818C121.355 47.9752 121.355 47.5154 121.432 47.1708C121.509 46.8263 121.698 45.9446 121.92 45.9446C122.142 45.9446 123.629 45.6 124.016 45.5228C124.403 45.4455 124.589 44.7957 124.969 44.2966C125.35 43.7975 126.913 41.5793 127.065 41.388C127.218 41.1968 127.712 40.4696 127.942 40.3544L131.115 44.4008C131.215 42.9576 130.993 41.2127 129.735 39.8982C128.592 38.7002 128.079 37.897 127.87 37.2937H127.829C127.526 37.2937 127.235 37.1727 127.021 36.9572C126.806 36.7418 126.686 36.4495 126.686 36.1448C126.686 36.0732 126.693 36.0018 126.706 35.9314C126.595 35.7966 126.479 35.6445 126.365 35.479C125.952 34.8781 126.059 34.7739 125.998 34.2307C125.937 33.6875 125.876 33.4803 125.891 33.1099C125.896 32.7537 125.845 32.3989 125.738 32.0591C125.647 31.7354 125.677 31.446 125.631 31.1235C125.585 30.801 125.387 30.454 125.31 30.2799C125.23 30.0802 125.164 29.8754 125.112 29.6668C125.066 29.4939 125.173 29.1358 125.173 29.1358C125.173 29.1358 125.218 29.3087 125.326 29.76C125.433 30.2112 125.539 30.0947 125.677 30.2333C125.826 30.3912 125.917 30.5945 125.937 30.8108C125.968 31.0561 126.533 32.4282 126.426 32.1278C126.327 31.8032 126.256 31.471 126.212 31.1345C126.166 30.8451 125.937 30.3988 125.769 30.1057C125.6 29.8127 125.494 29.1824 125.57 29.0892C125.646 28.996 126.18 28.974 126.18 28.974C126.18 28.974 126.546 29.7011 126.546 29.6435C126.546 29.5858 126.333 28.9629 126.333 28.9629L126.546 28.9396C126.546 28.9396 126.791 28.9163 126.837 29.0622C126.883 29.2082 126.867 30.7139 126.867 30.7139L126.989 30.7728C127.004 30.7262 127.112 30.5533 127.004 30.0555C126.897 29.5576 127.112 28.9813 127.112 28.9813C127.093 29.2162 127.098 29.4524 127.126 29.6864C127.173 30.1364 127.34 30.1597 127.386 30.4944C127.419 30.7397 127.334 31.1983 127.282 31.4386C127.42 31.235 127.532 31.0151 127.616 30.7838C127.68 30.6182 127.707 30.4407 127.697 30.2634C127.686 30.086 127.638 29.913 127.555 29.7563C127.768 29.9758 127.998 29.9169 127.707 30.633C127.417 31.3491 127.02 33.208 127.845 34.4575C127.974 34.6512 128.094 34.8514 128.203 35.0572C128.431 35.1371 128.628 35.2878 128.766 35.4873C128.903 35.6869 128.974 35.9251 128.968 36.1678C128.963 36.4105 128.881 36.6451 128.734 36.838C128.587 37.0308 128.383 37.1719 128.151 37.241C128.398 37.9038 128.781 38.5071 129.274 39.0117C130.714 40.4917 131.472 41.7093 131.197 44.5001L134.037 48.1211C135.6 50.1112 135.294 50.6471 135.028 51.1866C134.762 51.7262 132.437 56.1626 131.295 56.7045L129.237 53.9873C129.237 53.9873 128.17 54.2166 127.331 53.91C126.493 53.6035 125.541 53.2209 125.122 53.0296C124.703 52.8383 123.75 52.4557 123.369 52.2645C122.988 52.0732 121.502 50.2363 121.273 50.0058C121.16 49.8798 121.015 49.7874 120.854 49.7385C120.854 49.7385 123.336 48.6643 123.756 48.5491Z" fill="#B8BABB"/>
<path d="M115.525 11.8746C115.746 9.29094 115.672 8.92186 115.672 8.92186C115.672 8.92186 116.958 8.40562 117.545 8.4792C117.545 8.4792 118.427 5.01027 118.537 4.56761C118.647 4.12495 118.831 3.86622 118.903 4.34689C118.903 4.34689 122.176 5.92134 124.955 7.3327C126.973 5.10223 126.139 3.73379 125.565 3.16974C125.53 3.21788 125.484 3.25706 125.431 3.28411C125.378 3.31116 125.32 3.32532 125.26 3.32546C125.159 3.32514 125.061 3.28447 124.99 3.21233C124.918 3.1402 124.877 3.04245 124.877 2.94044C124.877 2.92695 124.877 2.91223 124.877 2.89875C124.669 2.67954 124.425 2.4986 124.154 2.36412C123.739 2.19613 122.798 0.716104 122.955 0.800712C123.1 0.911387 123.213 1.05975 123.28 1.22988C123.291 1.27771 124.446 2.13727 124.446 2.13727C124.344 2.04271 124.246 1.94285 124.154 1.83808C124.032 1.69785 123.937 1.53613 123.874 1.36109C123.819 1.20536 123.508 0.979737 123.313 0.870605C123.119 0.761473 123.134 0.404647 123.134 0.404647C123.286 0.493746 123.429 0.597658 123.56 0.714877C123.672 0.822783 123.83 0.989547 123.897 1.06189C123.996 1.14009 124.103 1.20827 124.215 1.26544C124.07 1.13424 124.093 1.11094 123.789 0.752891C123.486 0.394839 123.301 0.370315 123.318 0.334755C123.335 0.299195 123.532 0 123.532 0C123.657 0.0039658 123.781 0.028403 123.898 0.0723474C123.998 0.131205 123.998 0.370314 124.1 0.526042C124.201 0.68177 124.56 1.1465 124.56 1.1465C124.547 1.06312 124.649 0.82401 124.493 0.752891C124.336 0.681771 124.126 0.0723474 124.126 0.0723474C124.126 0.0723474 124.576 0.597161 124.688 0.776187C124.8 0.955213 124.833 1.26667 124.878 1.54011C124.93 1.81468 125.057 2.06938 125.244 2.27583C125.315 2.36357 125.365 2.46693 125.388 2.57748C125.462 2.60418 125.526 2.65298 125.571 2.71726C125.616 2.78154 125.64 2.85818 125.64 2.93676C125.639 2.97376 125.634 3.01049 125.623 3.04589C126.312 3.4677 126.388 4.37755 126.45 4.97103C126.489 5.34502 125.856 6.37994 125.127 7.41608C127.033 8.38723 128.667 9.26274 128.789 9.47242C129.083 9.98865 128.862 10.1358 128.862 10.1358L128.458 11.7225C128.458 11.7225 125.961 21.3543 125.773 21.9441C125.773 21.9441 125.7 22.2396 125.149 21.8338C124.599 21.4279 119.639 19.1361 118.831 18.5868C118.023 18.0375 115.598 16.9633 115.598 16.9633L115.892 15.6709C115.892 15.6709 115.305 14.4569 115.525 11.8746Z" fill="#B8BABB"/>
<path d="M67.2792 17.5445C67.1022 17.1767 67.1474 16.9829 67.1474 16.6285C67.1474 16.2742 66.985 15.8597 67.0253 15.4759C67.0656 15.0921 66.8642 13.8818 66.8642 13.8818C67.0343 14.0981 67.1637 14.3437 67.2462 14.6065C67.3195 14.8272 67.4379 15.2417 67.3927 15.5875C67.3475 15.9333 67.5843 16.9915 67.5843 16.9915C67.4525 16.474 67.5843 16.105 67.5697 15.78C67.5551 15.4551 67.4965 14.7304 67.3781 14.4496C67.2597 14.1688 67.1132 13.9027 67.1132 13.9027L67.5111 13.682C67.6404 13.6851 67.7688 13.7049 67.8932 13.7408C67.9664 13.785 68.0262 14.1393 68.0409 14.3319C68.0555 14.5244 68.3204 15.3361 68.3204 15.3361C68.3204 15.3361 68.2606 14.9683 68.1873 14.6421C68.1141 14.3159 68.0262 13.7408 68.0262 13.7408C68.0262 13.7408 68.2899 13.6513 68.2703 13.6967C68.2508 13.7421 68.5352 14.3024 68.5645 14.5832C68.5938 14.864 68.9478 15.1743 69.0942 15.6758C69.2407 16.1773 69.0503 17.5237 69.0503 17.5237C69.2419 17.2576 69.3884 16.1638 69.3884 16.1638C69.3737 16.371 69.4177 17.1239 69.198 17.5531C68.9783 17.9823 69.0442 18.4899 69.1662 18.9473C69.229 19.2756 69.2499 19.6106 69.2285 19.9442C69.3319 19.9698 69.4257 20.0249 69.4987 20.1027C69.5718 20.1805 69.621 20.2778 69.6404 20.383C69.6599 20.4881 69.6487 20.5967 69.6084 20.6957C69.568 20.7947 69.5001 20.8799 69.4128 20.9411V20.9534C69.7265 21.6229 71.0765 23.0624 72.507 24.0973C73.5336 24.8404 74.2928 26.0936 74.6895 26.8232C74.9336 25.6767 75.7636 21.5505 75.86 21.2378L78.0229 21.9257L77.7104 22.258L77.4456 23.8521C77.4456 23.8521 79.8062 24.1182 80.0271 24.1844C80.2481 24.2506 80.7107 24.54 80.8816 24.6062C81.0524 24.6724 82.3829 25.559 82.1839 25.6252C81.985 25.6914 81.6103 25.8913 81.5663 25.9575C81.5224 26.0237 81.5443 26.7558 81.3893 27.1101C81.2343 27.4645 81.1452 28.2137 81.0585 28.5068C80.9371 28.8427 80.7898 29.1687 80.6179 29.4816C80.5288 29.6373 80.198 30.2173 80.1541 30.4356C80.1101 30.6539 79.8672 31.3442 79.8892 31.6103C79.9112 31.8764 79.9551 32.8291 79.7794 32.9836C79.6036 33.1381 79.3155 33.0278 79.3155 33.0278L79.0946 33.3613C79.0946 33.3613 78.1682 33.1614 77.8374 33.1161C77.5066 33.0707 75.6318 32.6722 75.6318 32.6722C75.6318 32.6722 75.4548 33.6703 75.4548 33.869C75.4548 34.0676 75.4767 34.4453 75.4767 34.4453L73.337 34.4011C73.337 34.4011 73.226 33.647 73.337 33.2485C73.4481 32.85 74.4453 27.8532 74.5991 27.1812C74.3385 26.5699 74.0035 25.9933 73.6019 25.4646C72.7634 24.361 71.6599 23.602 70.9984 23.1593C70.3881 22.751 69.3676 21.2526 69.2102 21.0183C69.1672 21.0301 69.1229 21.0363 69.0784 21.0367C68.9378 21.0364 68.8025 20.9824 68.7001 20.8856C68.5976 20.7889 68.5356 20.6566 68.5267 20.5156C68.2899 20.2704 67.9859 19.9184 67.9749 19.8118C67.9258 19.402 67.8442 18.9969 67.7308 18.6003C67.5978 18.2018 66.1709 16.7242 66.1709 16.7242C66.7348 16.9829 67.4574 17.9136 67.2792 17.5445Z" fill="#B8BABB"/>
<path d="M54.275 43.6712L53.1143 40.7492L63.8299 37.36C63.8299 37.36 65.6169 41.8969 66.597 44.3726C67.7981 44.6694 68.9357 45.2665 69.6131 46.3946C71.0851 48.847 72.4913 51.194 73.3408 52.3258C73.471 52.2465 73.6182 52.1997 73.77 52.1892C73.9219 52.1787 74.0741 52.2048 74.2138 52.2654C74.3536 52.326 74.4769 52.4193 74.5735 52.5375C74.67 52.6558 74.737 52.7955 74.7689 52.945C75.3292 53.3215 76.2117 54.1197 76.2336 55.379C76.2629 57.1815 75.2633 59.6634 75.5013 61.3776C75.7393 63.0918 75.5904 64.5657 75.4427 64.9827C75.4427 64.9827 75.2364 62.5597 75.1778 61.8509C75.1778 61.8509 75.2669 64.7766 74.4455 65.0121L73.6215 64.8355C73.6215 64.8355 73.8864 63.5652 74.0622 62.6786C74.0622 62.6786 73.4739 64.1856 73.2078 64.6871L72.2948 64.3916C72.2948 64.3916 71.9908 63.846 72.3546 62.8662C72.4203 62.6895 72.4986 62.5178 72.5889 62.3524C73.2956 61.0527 74.0536 59.8706 74.0903 59.3679C74.0903 59.3679 72.2362 61.9981 71.9713 62.9741C71.9713 62.9741 72.3253 60.7572 73.0601 59.6634C73.5492 58.9462 73.8341 58.1084 73.884 57.2404C73.884 57.0037 73.5019 56.0289 73.5019 55.4673C73.5019 55.1166 73.4555 54.5146 73.436 54.0167C73.2967 53.9518 73.1751 53.854 73.0815 53.7318C72.9878 53.6095 72.9249 53.4664 72.8981 53.3145C72.8712 53.1626 72.8813 53.0065 72.9273 52.8594C72.9734 52.7122 73.0541 52.5784 73.1626 52.4692C73.0649 52.3463 72.9829 52.2116 72.9185 52.0683C72.6829 51.5373 69.0052 46.0108 68.1228 45.4198C67.7183 45.1706 67.2752 44.9912 66.8118 44.8889L67.0804 45.5669C67.7419 47.2272 69.0333 50.5171 69.0651 50.6164C69.0968 50.7158 67.2134 51.4135 66.2577 51.7458C65.3019 52.0781 58.7168 54.4434 58.7168 54.4434L57.6915 51.991C57.6915 51.991 56.0718 51.3926 55.1453 50.0978C54.2189 48.8029 53.1277 45.4124 53.2937 44.7478L54.275 43.6712Z" fill="#B8BABB"/>
<path d="M23.3633 21.4365C23.4731 21.345 23.5921 21.2652 23.7185 21.1986C23.9077 21.1042 23.9077 20.4384 23.6709 19.5113C23.4341 18.5843 24.3813 17.3042 24.3813 17.3042L27.4096 15.8573L26.7236 9.53618L30.8736 13.6734C30.9054 12.6581 30.7198 11.7115 30.0668 11.221C28.7473 10.2302 28.2982 9.47365 28.1139 8.96722C28.0888 8.97155 28.0635 8.97401 28.0382 8.97458C27.9352 8.97516 27.8343 8.94608 27.7473 8.89079C27.6604 8.8355 27.591 8.75631 27.5474 8.66262C27.5039 8.56893 27.488 8.46466 27.5016 8.36217C27.5153 8.25968 27.5579 8.16326 27.6244 8.08436C27.5625 7.76616 27.5218 7.44418 27.5023 7.12056C27.5023 6.9072 27.2179 6.38484 26.9702 5.98019C26.7224 5.57554 26.6858 5.26654 26.5088 4.78587C26.3318 4.3052 26.2646 4.10901 26.3306 3.73379C26.3674 3.48339 26.3304 3.22765 26.2244 2.99807C26.4551 3.12069 26.5442 3.14153 26.5613 3.51552C26.5783 3.88952 27.2362 5.01272 27.2362 5.01272C27.2179 4.95876 26.9921 4.38858 26.9164 4.19239C26.839 3.85126 26.7799 3.5062 26.7395 3.1587L27.2716 3.12314L27.3424 3.90791V3.8184C27.3424 3.6222 27.4315 3.10475 27.484 3.10475C27.5365 3.10475 27.7281 3.03363 27.7281 3.1587C27.7281 3.28377 27.7452 4.33463 27.7452 4.33463C27.7452 4.33463 27.7989 4.67429 27.7806 4.26351C27.7623 3.85273 27.9588 3.05202 27.9588 3.05202L27.9405 3.94347C27.8514 4.51365 28.3665 5.67242 28.6326 6.67054C28.7807 7.17317 28.7417 7.71277 28.5228 8.18859C28.5595 8.26247 28.5787 8.34389 28.5789 8.42647C28.5784 8.52972 28.5487 8.6307 28.4931 8.71757C28.4375 8.80444 28.3585 8.8736 28.2652 8.91695C28.4849 9.46506 28.9793 10.3884 29.9106 10.8041C30.9261 11.2553 31.1373 12.3859 31.0396 13.8303L34.9321 17.7064L34.7185 26.4271C34.7185 26.4271 30.8126 23.7417 30.7687 23.6706C30.7687 23.6706 29.2075 24.502 28.3555 24.6455C27.5036 24.7889 26.1084 24.2408 25.6348 24.0029C25.1612 23.765 24.1921 22.6958 23.9785 22.4346C23.8137 22.2442 23.6319 22.0693 23.4353 21.9123L23.7429 21.6744L23.3633 21.4365Z" fill="#B8BABB"/>
<path d="M95.6398 90.533C95.567 90.433 95.4853 90.3398 95.3957 90.2547C95.3957 90.2547 94.4436 90.1762 94.2007 90.1076L94.1885 90.3736C94.2704 90.4078 94.3462 90.455 94.4131 90.5134C94.4912 90.5919 94.518 90.6704 94.5778 90.6961C94.6938 90.7317 94.8025 90.7877 94.8989 90.8617C94.9672 90.9389 95.0539 90.9475 95.143 91.0088C95.2321 91.0701 95.663 91.113 95.8265 91.1314C95.9901 91.1498 96.2598 91.1842 96.2598 91.1842C96.2598 91.1842 95.7362 90.6704 95.6398 90.533Z" fill="#B8BABB"/>
<path d="M104.441 117.008C104.254 116.348 104.207 116.255 104.254 115.643C104.3 115.031 104.16 113.665 104.16 113.665L104.863 112.724C104.863 112.724 104.816 112.017 104.816 111.546C104.816 111.076 104.067 109.993 103.738 109.664C103.41 109.336 102.613 108.393 102.847 107.97C103.082 107.547 103.364 106.887 103.129 105.756C102.895 104.626 101.067 104.862 100.411 104.956C99.7556 105.049 99.6616 102.979 99.6616 102.979C99.3621 101.744 99.1625 100.488 99.0647 99.2207L98.983 98.6652C98.983 98.6652 98.1957 93.6954 98.087 93.0112C97.9784 92.327 97.7294 91.3166 97.55 90.9929C97.3705 90.6692 96.5808 90.0561 96.3294 89.9837C96.0779 89.9114 95.1454 89.3351 95.0734 89.1548C95.0014 88.9745 94.3203 88.5061 94.3203 88.5061C94.3203 88.5061 94.8586 87.172 94.4277 86.8839C94.1237 86.6803 93.6746 87.3523 93.3877 88.1456C93.1009 88.939 93.0643 89.4785 93.1009 89.8035C93.1375 90.1284 93.0289 90.7758 93.1363 91.3889C93.2437 92.002 93.2803 92.506 93.5672 92.723C93.854 92.9401 94.7878 93.6954 95.11 93.9836C95.3222 94.184 95.5037 94.415 95.6483 94.669C95.6483 94.669 95.8631 97.7345 96.0779 99.5346C96.2927 101.335 96.5088 104.761 96.8323 105.911C97.1557 107.061 97.2265 107.316 97.2265 107.569C97.2265 107.821 96.7956 108.073 96.6528 108.398C96.51 108.723 91.558 116.183 90.8403 117.949L90.8281 117.978H104.535C104.554 117.652 104.522 117.325 104.441 117.008ZM95.8277 91.1351C95.6641 91.1179 95.2308 91.075 95.1442 91.0125C95.0575 90.95 94.9708 90.9426 94.9001 90.8654C94.8037 90.7914 94.695 90.7353 94.579 90.6998C94.5192 90.6741 94.4924 90.5956 94.4142 90.5171C94.3473 90.4572 94.271 90.4088 94.1884 90.3736L94.2055 90.1051C94.4496 90.1738 95.4005 90.2523 95.4005 90.2523C95.4898 90.3377 95.5715 90.4308 95.6446 90.5306C95.741 90.6704 96.2549 91.1829 96.2549 91.1829C96.2549 91.1829 95.9864 91.1462 95.8216 91.1302L95.8277 91.1351Z" fill="#B8BABB"/>
<path d="M122.94 110.407C122.835 108.888 122.053 106.268 122.261 104.801C122.47 103.335 122.679 102.653 122.419 101.447C122.159 100.242 122.21 99.8228 121.845 99.4034C121.48 98.984 121.27 98.8798 121.27 98.8798C121.27 98.8798 120.802 99.7185 120.538 99.6658C120.274 99.6131 120.382 94.4777 120.172 93.1154C119.962 91.7531 119.91 85.7276 119.598 85.0985C119.286 84.4695 118.919 83.2126 119.128 82.2169C119.337 81.2213 119.702 80.2256 119.754 79.7535C119.807 79.2814 120.589 77.9718 120.853 77.6052C121.1 77.216 121.326 76.8136 121.53 76.3998C121.53 76.3998 120.853 75.929 120.432 76.3483L121.265 74.6709C121.265 74.6709 121.058 74.0418 120.118 74.5139C119.178 74.986 119.076 75.6175 118.814 76.2429C118.553 76.8682 117.458 78.8105 117.25 79.1772C117.041 79.5438 116.728 79.4923 116.363 80.1729C116.092 80.7015 115.847 81.2438 115.631 81.7976C115.631 81.7976 115.005 79.9104 114.166 80.1201C113.328 80.3298 113.54 80.4353 113.905 81.0643C114.27 81.6933 114.793 82.846 114.896 83.3168C115.066 83.94 115.349 84.5261 115.731 85.0458C116.097 85.5179 116.565 85.4136 116.67 86.3566C116.775 87.2995 116.617 92.1725 116.565 93.9591C116.512 95.7456 116.199 98.832 116.044 99.6707C115.889 100.509 115.835 101.766 115.677 102.081C115.52 102.397 114.843 103.077 114.634 103.863C114.425 104.649 113.434 105.959 113.535 107.74C113.637 109.522 113.796 109.312 113.796 109.312C113.796 109.312 113.118 110.518 113.274 111.304C113.43 112.09 113.64 112.039 113.535 112.299C113.43 112.559 112.7 113.19 112.492 113.713C112.492 113.721 112.486 113.725 112.483 113.733C112.468 114.315 112.447 114.9 112.418 115.484C112.655 115.903 112.926 116.37 112.857 116.543C112.766 116.77 112.442 116.565 112.356 116.608C112.328 117.067 112.297 117.526 112.265 117.987H124.941C124.002 115.106 123.011 111.443 122.94 110.407Z" fill="#B8BABB"/>
<path d="M138.298 117.567C138.037 117.462 137.566 117.253 137.566 116.831C137.566 116.41 137.408 115.311 137.252 115.154C137.096 114.997 136.992 114.63 136.783 114.315C136.574 114 136.104 113.111 135.792 112.639C135.48 112.167 134.487 111.224 134.487 111.224L134.175 110.805C134.175 110.805 133.027 106.98 132.662 104.779C132.297 102.578 132.14 99.3298 132.14 99.0674C132.14 98.805 132.557 99.0674 132.506 98.6481C132.455 98.2287 132.192 98.1772 132.297 97.8093C132.402 97.4415 132.664 96.6567 132.922 96.3955C133.181 96.1343 133.757 95.0332 133.966 94.7181C134.175 94.403 134.487 92.4656 134.801 92.0462C135.115 91.6268 135.687 91.3105 135.687 91.1547C135.687 90.999 135.166 90.6311 134.645 90.9978C134.123 91.3644 133.34 92.3074 133.34 92.3074C133.34 92.3074 132.819 88.6398 132.036 88.6398C131.254 88.6398 131.775 89.8979 131.984 90.4215C132.192 90.9451 132.192 92.0989 132.192 92.0989L132.14 92.4128L131.828 92.0989C131.828 92.0989 131.566 90.5269 131.149 90.5269C130.731 90.5269 130.263 90.6839 130.159 91.1547C130.159 91.1547 129.377 91.0505 129.219 91.5741L129.063 92.0989C129.063 92.0989 128.489 92.0989 128.28 92.4128C128.072 92.7267 127.914 93.5164 128.019 93.7224C128.124 93.9284 128.072 95.1939 128.124 95.7138C128.177 96.2337 128.28 97.233 128.28 97.233L128.542 97.7578C128.542 97.7578 128.019 97.8621 128.175 98.2814C128.332 98.7008 128.644 98.5953 128.644 98.5953C128.644 98.5953 128.853 99.591 128.8 100.116C128.748 100.641 128.332 105.408 128.434 106.351C128.537 107.294 128.487 110.643 128.695 111.379C128.695 111.379 125.305 114.681 125.41 115.257C125.574 116.175 125.788 117.083 126.052 117.977H138.524C138.461 117.767 138.382 117.601 138.298 117.567Z" fill="#B8BABB"/>
<path d="M72.8122 117.92C71.7137 117.345 71.5916 115.99 71.2596 115.457C70.9276 114.923 69.7058 110.653 69.5435 110.119C69.3811 109.586 69.5435 108.436 69.5435 107.655C69.5435 106.873 69.2163 106.259 69.2566 105.438C69.2969 104.616 69.6655 101.373 69.6655 101.373C69.2948 101.296 68.9282 101.2 68.567 101.086C68.567 101.086 68.689 99.7296 68.9759 99.4022C69.2627 99.0748 70.4064 97.9234 70.57 97.5543C70.7335 97.1852 71.1009 95.4599 71.1009 95.2135C71.1138 95.0169 71.1549 94.8231 71.223 94.6384C71.223 94.6384 72.8171 94.3514 72.9807 94.3098C72.9807 94.3098 73.3468 93.612 71.959 93.8585L71.3487 93.5704C71.3487 93.5704 73.392 93.4477 73.8424 93.3656C74.2928 93.2834 74.4136 92.7905 73.8424 92.7525C73.2712 92.7145 72.0432 92.7929 72.0432 92.7929C72.0432 92.7929 71.8797 92.2179 71.5123 92.2595C71.1449 92.3012 70.5358 92.7108 70.122 92.7108H68.971C68.971 92.7108 71.9139 89.4675 71.9541 88.8102C71.9541 88.8102 71.7503 88.0304 71.0143 88.9329C70.2783 89.8353 69.8694 90.2461 69.8694 90.2461C69.8694 90.2461 70.4797 87.9874 70.0744 88.0696C69.6692 88.1518 68.5206 90.9009 68.2753 91.3914C68.0299 91.8819 67.5429 92.4582 67.2988 92.5403C67.0547 92.6225 66.6042 92.7047 66.481 93.1976C66.3738 93.5988 66.3055 94.0094 66.2771 94.4238C66.2356 94.9143 66.1953 96.2717 66.033 96.9694C65.8707 97.6671 65.8694 98.3182 65.5826 98.9399C65.2958 99.5616 64.9296 100.09 64.9723 100.337C65.015 100.583 64.6061 100.254 64.6061 100.254C64.6061 100.254 64.4011 102.02 64.362 102.349C64.323 102.677 63.9116 103.908 64.0752 104.976C64.2387 106.045 63.709 107.193 63.709 108.138C63.709 109.082 64.2814 113.435 64.2399 114.831C64.2119 115.788 64.0312 116.975 63.8664 117.972H72.9221C72.8867 117.952 72.85 117.935 72.8122 117.92Z" fill="#B8BABB"/>
<path d="M31.1618 90.8788C31.2803 90.8496 31.3944 90.8047 31.5011 90.7452C31.5817 90.7182 31.7245 90.6459 31.7513 90.6373C31.7782 90.6287 31.733 90.5563 31.6073 90.5294C31.4816 90.5024 30.2646 90.5563 30.2646 90.5563C30.2646 90.5563 30.6223 90.8519 30.7382 90.9242C30.8542 90.9966 30.9921 90.9009 31.1618 90.8788Z" fill="#B8BABB"/>
<path d="M31.9831 89.6955C32.0922 89.7406 32.1945 89.8009 32.287 89.8746C32.3126 89.9015 32.4738 89.9285 32.5092 89.8917C32.5765 89.8133 32.6482 89.7388 32.724 89.6686C32.7508 89.6588 32.6617 89.5692 32.5092 89.5459C32.3566 89.5227 31.125 89.5104 31.125 89.5104C31.2067 89.5722 31.3015 89.6142 31.4021 89.633C31.5969 89.6405 31.7911 89.6614 31.9831 89.6955Z" fill="#B8BABB"/>
<path d="M30.7814 117.601C30.7814 117.601 30.4946 115.868 30.3213 115.405C30.148 114.943 30.0344 110.551 29.8037 109.163C29.5731 107.775 29.1715 106.33 29.1715 106.097C29.1715 105.864 28.5954 103.727 28.6527 103.322C28.7101 102.918 28.4233 102.167 28.4233 101.993C28.4233 101.819 28.538 100.375 28.538 100.375C28.538 100.375 28.4806 99.103 28.7101 98.8148C28.9396 98.5267 28.538 97.7738 28.538 97.7738C28.538 97.7738 28.4806 95.8119 29.1715 95.52C29.8623 95.2282 30.2639 94.479 30.6667 94.3061C31.0695 94.1332 31.9898 93.0921 32.2779 92.4557C32.566 91.8193 32.3926 91.5888 32.7381 91.3522C33.0835 91.1155 33.1982 90.5429 33.7744 90.3111C34.3505 90.0794 34.8094 89.7336 34.9815 89.4442C35.1536 89.1548 34.8839 88.1702 33.8305 88.8188C33.8305 88.8188 33.208 88.8409 32.9126 88.7612C32.6172 88.6815 31.5992 88.5454 31.4296 88.5159C31.2462 88.4747 31.0678 88.4139 30.8974 88.3345C30.7839 88.2891 30.7045 88.2891 30.7949 88.164C30.8852 88.0389 31.4516 87.6171 31.9166 87.5951C32.3817 87.573 32.771 87.4124 33.4338 87.1401C34.0966 86.8679 34.2882 86.7637 34.3065 86.5135C34.3248 86.2634 34.2724 85.9005 33.9208 86.0586C33.6575 86.1824 33.3736 86.256 33.0835 86.2757C32.795 86.3058 32.5093 86.3587 32.2291 86.4339C32.0288 86.5018 31.8251 86.5591 31.6188 86.6055C31.4967 86.6166 31.3124 86.6963 31.1879 86.6963C31.0429 86.6967 30.8985 86.7156 30.7583 86.7527C30.6531 86.7819 30.5411 86.7741 30.4409 86.7306C30.5653 86.6038 30.7107 86.4997 30.8706 86.4228C31.1147 86.3088 31.1318 86.1776 31.1989 86.1494C31.266 86.1212 32.0606 86.0709 32.3768 85.9679C32.6929 85.8649 32.887 85.5473 32.876 85.4222C32.8543 85.3298 32.8023 85.2473 32.7283 85.188C32.7283 85.188 32.1375 85.2064 31.8324 85.188C31.5487 85.168 31.2649 85.2238 31.0097 85.3499C30.599 85.531 30.175 85.6803 29.7415 85.7962C29.5267 85.8318 29.3472 86.0415 29.1678 86.3713C28.9884 86.7012 28.5209 87.9359 28.2206 88.0806C27.9204 88.2253 27.3796 88.3688 27.2356 88.5711C27.0916 88.7734 26.9854 89.3265 26.9134 89.7581C26.8414 90.1897 26.3592 93.1216 26.109 93.8046C25.8588 94.4876 25.4108 95.1178 25.124 95.5666C24.8371 96.0154 25.0019 96.2864 24.9091 96.7536L24.82 97.2208C24.6777 97.3812 24.5733 97.5719 24.5149 97.7787C24.4075 98.138 23.9241 99.8829 23.9241 100.009C23.9241 100.135 23.7093 100.117 23.6922 100.476C23.6751 100.836 23.3871 101.879 22.994 102.58C22.706 103.101 22.5814 103.696 22.6364 104.289C22.6535 104.683 22.4753 105.241 22.1701 105.781C21.865 106.32 21.5598 107.651 21.3645 108.981C21.1692 110.312 20.8995 110.726 20.3978 111.859C19.8961 112.992 19.5922 113.136 19.7533 114.557C19.7533 114.557 20.0695 116.178 20.3636 117.854H31.0622C30.977 117.761 30.883 117.676 30.7814 117.601ZM32.5098 89.5423C32.6624 89.5693 32.7539 89.6649 32.7246 89.6649C32.6489 89.7351 32.5772 89.8097 32.5098 89.8881C32.4744 89.9248 32.3133 89.8979 32.2877 89.8709C32.1952 89.7972 32.0929 89.737 31.9837 89.6919C31.7917 89.6573 31.5976 89.636 31.4027 89.6281C31.3022 89.6093 31.2073 89.5673 31.1257 89.5055C31.1257 89.5055 32.3585 89.5153 32.5098 89.5423ZM31.6078 90.533C31.7299 90.56 31.7787 90.6311 31.7518 90.641C31.725 90.6508 31.5822 90.7219 31.5016 90.7489C31.3949 90.8083 31.2808 90.8533 31.1623 90.8825C30.9926 90.9095 30.8583 90.999 30.7424 90.9279C30.6264 90.8568 30.2688 90.56 30.2688 90.56C30.2688 90.56 31.4833 90.5024 31.6078 90.533Z" fill="#B8BABB"/>
<path d="M57.313 113.241C57.009 112.834 57.0505 112.41 57.2873 111.992C57.0994 111.848 56.9712 111.723 56.9712 111.658C56.9712 111.421 56.6892 109.436 56.5953 109.057C56.5013 108.678 56.4537 108.49 56.4537 108.49C56.4537 108.49 58.6654 103.006 59.7005 101.255C60.7355 99.5039 61.9122 99.0331 62.4309 98.9387C62.9497 98.8442 63.748 98.0399 64.1251 97.3311C64.5023 96.6224 64.9246 96.1491 64.8782 95.8597C64.8319 95.5703 64.9722 94.2043 65.0186 94.0204C65.065 93.8364 64.5951 93.4073 63.9359 94.6825C63.2768 95.9578 63.3256 96.2422 63.3256 96.2422C63.3256 96.2422 62.337 96.1012 62.149 96.1012C61.961 96.1012 61.8194 95.5335 61.961 95.0602C62.1026 94.5869 62.055 93.8781 62.3846 93.406C62.7141 92.9339 63.2793 91.8463 63.6552 91.5667C64.0311 91.2872 64.6439 90.9046 64.6903 90.7636C64.7367 90.6226 65.1614 90.2903 64.5963 90.1014C64.0312 89.9126 63.0901 90.8102 62.337 91.3276C61.9444 91.586 61.5817 91.8874 61.2555 92.2264C61.2555 92.2264 60.7831 91.7592 62.1478 90.9009C63.5124 90.0426 64.1251 89.53 63.4184 89.0616C63.4184 89.0616 62.1014 89.5337 61.5875 90.0536C61.5875 90.0536 60.8344 90.1014 60.4572 90.2437C60.0175 90.4322 59.5917 90.6518 59.1829 90.9009C59.0413 90.9953 58.2418 92.8395 58.0063 93.2184C57.7707 93.5973 57.9123 94.0216 58.0063 94.3048C58.1003 94.5881 58.7594 95.7763 58.4774 96.1969C58.1955 96.6175 57.9123 96.7168 57.6767 97.2367C57.4411 97.7566 55.9361 99.3642 55.6017 99.7418C55.2672 100.119 53.9087 101.493 53.9087 101.493C53.9087 101.493 53.8611 100.973 53.6731 100.88C53.4852 100.787 53.6731 99.2244 53.0628 98.7045C52.4525 98.1846 50.5679 97.0503 48.7334 97.233C46.8988 97.4157 43.6069 97.4219 43.0857 97.4219C42.5645 97.4219 41.3915 97.3274 41.3915 97.3274C41.3915 97.3274 39.3165 100.638 39.4141 101.299C39.5117 101.96 39.3677 102.481 39.3201 103.001C39.2725 103.521 39.4617 105.034 39.5093 105.412C39.5569 105.789 39.7913 107.824 39.7437 108.579C39.6961 109.334 39.9329 111.605 40.1208 112.362C40.3088 113.118 40.6847 113.638 41.1083 114.158C41.5318 114.678 41.7674 115.057 42.2386 115.719C42.7097 116.381 43.0857 116.854 42.9917 117.191C42.9289 117.45 42.8917 117.716 42.8806 117.983H58.4774C58.8424 116.498 58.608 114.903 57.313 113.241Z" fill="#B8BABB"/>
<path d="M88.9715 117.825C88.6603 117.105 88.5675 116.949 88.4735 117.042C88.3795 117.136 86.6426 113.977 84.5505 111.6C82.4584 109.224 81.0633 106.909 80.6592 105.721C80.2552 104.533 80.254 103.031 79.5693 101.936C78.8845 100.841 77.7323 98.5892 77.6078 98.6517C77.6078 98.6517 76.8913 96.6812 76.4872 96.7131C76.4872 96.7131 76.6423 96.2116 75.9258 96.4936C75.2093 96.7756 75.9575 99.5591 76.2688 100.685C76.2688 100.685 75.5523 99.1214 75.2105 98.1821C75.2105 98.1821 74.0583 97.4942 74.837 100.435C75.6157 103.375 75.739 103.563 75.7085 103.718C75.678 103.874 75.739 104.813 75.739 104.813L75.3972 104.845C75.3972 104.845 74.8053 103.438 74.1522 102.748C73.4992 102.059 72.502 101.936 72.751 102.686C73 103.436 73.155 102.441 73.5908 104.313C74.0265 106.186 74.1828 105.751 74.3695 106.314C74.5563 106.877 75.5218 107.54 75.9892 107.879C76.4567 108.217 77.5138 108.504 78.3242 109.505C79.1622 110.583 79.902 111.734 80.5348 112.946C81.0328 113.916 82.4023 116.074 82.9003 117.762C82.9235 117.839 82.9442 117.91 82.965 117.982H89.0497C89.0167 117.919 88.9898 117.866 88.9715 117.825Z" fill="#B8BABB"/>
<path d="M111.331 115.073C110.831 114.264 110.409 113.301 110.371 113.031C110.333 112.762 109.761 107.983 109.639 106.018C109.517 104.052 109.524 99.4672 109.754 98.8896C109.983 98.3121 110.559 97.6561 110.674 97.0013C110.789 96.3465 110.674 95.845 111.096 95.1521C111.519 94.4593 112.17 93.6488 112.477 93.1093C112.701 92.7094 112.872 92.282 112.986 91.8377C113.024 91.6832 112.526 91.2246 111.643 92.1847C110.761 93.1449 110.646 93.9186 109.917 93.9958C109.188 94.0731 108.689 94.2264 108.498 93.9958C108.306 93.7653 107.5 92.9548 107.5 92.8395C107.5 92.7243 108.191 91.2602 108.076 90.9512C107.962 90.6422 107.539 90.4509 107.5 90.8359C107.461 91.2209 107.232 91.4907 107.117 91.6832L107.002 91.8757C107.002 91.8757 106.158 91.14 106.158 90.7967C106.158 90.4533 106.388 88.8703 106.043 88.446C105.698 88.0218 105.506 88.1775 105.506 88.1775L105.391 88.9476C105.391 88.9476 105.2 87.0592 104.202 87.4062C104.088 87.4467 104.394 88.37 104.394 88.37C104.394 88.37 104.009 88.408 104.086 88.6398C104.163 88.8715 104.355 89.4098 104.355 89.9114C104.355 90.4129 104.586 90.7206 104.662 91.4135C104.739 92.1063 105.16 92.6078 105.237 93.1473C105.314 93.6868 105.352 94.4581 105.506 94.8431C105.66 95.2282 106.197 96.4617 106.158 96.8051C106.119 97.1484 106.388 97.9614 106.426 98.4997C106.474 98.9363 106.461 99.3774 106.388 99.8105C106.311 100.235 106.388 100.89 106.388 101.506C106.388 102.123 106.158 105.398 106.081 106.978C106.004 108.153 105.863 109.324 105.66 110.485C105.66 110.485 104.777 113.49 104.623 114.26C104.472 115.075 104.552 115.916 104.854 116.688C104.921 116.866 105.082 117.337 105.3 117.978H112.451C112.024 116.717 111.576 115.472 111.331 115.073Z" fill="#B8BABB"/>
<path d="M151.46 116.324C151.492 116.013 151.543 115.704 151.613 115.399C151.613 115.399 152.285 115.495 152.437 115.322C152.59 115.149 152.437 115.09 152.362 114.954C152.286 114.818 151.825 114.511 151.9 114.281C151.976 114.05 152.131 111.951 151.786 111.139C151.44 110.328 151.44 110.177 150.923 109.545C150.405 108.914 150.136 108.236 150.04 108.081C149.944 107.927 149.734 107.713 149.619 107.446C149.504 107.179 149.375 106.983 149.197 106.578C149.018 106.173 149.1 106.02 148.871 105.653C148.641 105.287 148.525 105.095 148.295 104.941C148.064 104.786 147.048 104.362 147.048 104.362C147.048 104.362 147.643 99.58 147.797 99.3347C147.95 99.0895 149.505 95.9247 149.56 95.7898C149.615 95.6549 148.429 94.8272 148.391 94.6862C148.353 94.5452 148.966 92.1614 149.197 91.7433C149.427 91.3252 150.731 89.4883 150.96 87.6772C151.19 85.8661 151.191 85.1537 151.248 85.0568C151.306 84.9599 151.939 83.632 152.131 83.5155C152.323 83.399 153.051 82.9956 153.148 82.9024C153.244 82.8092 153.493 82.4781 153.3 82.3628C153.107 82.2476 152.437 82.304 151.958 82.5161C151.478 82.7283 150.73 82.998 150.595 83.0949C150.461 83.1918 150.25 82.9784 150.461 82.5738C150.672 82.1691 152.321 79.8381 152.475 79.6309C152.629 79.4236 152.896 79.0729 152.533 78.7455C152.169 78.4182 151.573 79.4813 151.362 79.5929C151.151 79.7044 150.807 80.206 150.653 80.3825C150.499 80.5591 149.521 81.5008 149.368 81.6933L149.061 82.0784C149.061 82.0784 149.156 80.7872 149.349 80.4843C149.542 80.1814 150.71 77.9215 150.768 77.5745C150.825 77.2275 150.749 77.0154 150.346 77.0546C149.944 77.0939 149.656 77.6898 149.425 78.0564C149.194 78.4231 148.326 79.7731 148.121 80.0024C147.916 80.2317 147.738 80.3874 147.699 80.6572C147.677 80.853 147.638 81.0465 147.584 81.236C147.584 81.1771 147.355 80.6376 147.393 80.3494C147.43 80.0613 147.565 79.1735 147.622 78.943C147.679 78.7124 147.967 77.9412 147.967 77.7486C147.967 77.5561 148.249 76.813 147.379 76.9823C146.968 77.062 146.945 77.8173 146.668 78.3139C146.39 78.8105 146.37 79.4678 146.212 79.8651C146.055 80.2624 145.895 80.6216 146.013 81.0582C146.172 81.5652 146.291 82.0838 146.37 82.6093C146.43 83.1464 146.469 84.2034 146.469 84.6583C146.469 85.1132 146.528 86.4682 146.43 87.6208C146.331 88.7734 146.331 89.4307 146.172 89.6698C145.819 90.2065 145.54 90.7885 145.341 91.4C145.044 92.2939 144.73 93.2687 144.73 93.2687C144.579 93.3252 144.445 93.4183 144.338 93.5399C144.232 93.6614 144.157 93.8075 144.12 93.9652C143.998 94.5023 142.555 97.4648 142.319 97.9025C142.082 98.3403 141.645 99.4537 141.487 99.7124C141.244 100.171 141.04 100.65 140.877 101.143C140.837 101.342 139.689 103.033 139.333 103.411C138.977 103.788 137.69 104.823 137.746 104.802C137.802 104.782 138.023 105.26 138.064 105.598C138.104 105.937 137.965 106.274 138.083 106.653C138.148 106.854 138.201 107.058 138.242 107.266C138.242 107.266 137.746 108.38 137.568 110.288C137.39 112.196 137.312 112.855 137.312 113.093C137.312 113.331 137.291 113.729 137.291 113.729C137.291 113.729 136.657 114.406 136.341 115.062C136.341 115.062 134.559 116.426 133.262 117.995H151.596C151.496 117.405 151.41 116.708 151.46 116.324Z" fill="#B8BABB"/>
<path d="M198.966 115.432C198.762 114.451 198.026 111.695 197.576 110.461C197.125 109.228 194.223 104.793 193.854 103.765C193.485 102.737 192.055 100.108 192.055 99.862C192.055 99.6155 191.811 99.7394 191.851 99.6168C191.891 99.4941 191.241 99.0037 191.319 97.9332C191.397 96.8627 192.173 94.5231 192.173 94.0302C192.173 93.5372 191.886 93.3729 191.846 93.0026C191.806 92.6323 191.846 91.9346 191.805 91.4417C191.763 90.9487 191.601 90.6606 191.396 90.2498C191.191 89.839 190.496 88.3602 190.456 87.9911C190.415 87.622 189.8 87.5387 189.391 88.1554L189.433 88.7305C189.342 88.8236 189.291 88.9489 189.291 89.0794C189.291 89.2099 189.342 89.3351 189.433 89.4282L189.473 90.7844C189.473 90.7844 189.107 89.5104 188.574 89.6808C188.04 89.8513 188.085 90.7489 188.246 91.6526C188.408 92.5563 188.41 93.0504 188.288 93.4195C188.166 93.7886 187.922 94.2411 187.838 94.4471C187.753 94.6531 187.716 94.9805 187.593 95.1043C187.471 95.2282 186.408 95.6377 186.203 95.7174C185.998 95.7971 185.304 95.7174 185.304 95.7174C185.304 95.7174 183.423 94.0743 182.4 94.0743C181.377 94.0743 181.255 94.5268 181.255 94.5268C181.255 94.5268 182.073 95.1399 182.36 95.677C182.646 96.214 183.092 96.2521 183.381 96.5353C183.67 96.8186 184.236 97.3581 184.358 97.6389C184.48 97.9197 185.381 98.7891 185.994 98.9534C186.608 99.1177 187.425 99.9809 187.467 100.35C187.494 100.58 187.563 100.803 187.67 101.007L187.467 101.295C187.467 101.295 187.955 101.953 188.161 102.323C188.367 102.693 188.57 104.417 188.693 104.706C188.816 104.994 189.02 105.527 188.979 105.732C188.937 105.937 189.184 106.713 189.184 106.924C189.184 107.135 189.266 108.074 189.224 108.978C189.183 109.881 189.184 110.991 189.224 111.279C189.264 111.567 188.693 111.69 189.02 112.429C189.347 113.169 189.593 113.251 189.551 113.866C189.51 114.482 188.857 114.976 189.063 115.305C189.269 115.633 189.595 116.126 189.717 116.579C189.839 117.031 189.759 117.769 189.636 117.975H199.251C199.203 117.123 199.108 116.274 198.966 115.432Z" fill="#B8BABB"/>
<path d="M99.8198 87.6012C99.8993 87.4906 99.9888 87.3876 100.087 87.2934C100.087 87.2934 101.142 87.2064 101.409 87.1291L101.429 87.4283C101.34 87.4665 101.257 87.5182 101.184 87.5816C101.098 87.6686 101.07 87.7557 101.003 87.7839C100.875 87.8237 100.755 87.8855 100.649 87.9666C100.572 88.0537 100.475 88.0635 100.38 88.1309C100.285 88.1984 99.8051 88.2462 99.6232 88.2646C99.4414 88.283 99.1436 88.3234 99.1436 88.3234C99.1436 88.3234 99.7136 87.7557 99.8198 87.6012Z" fill="#7F7F81"/>
<path d="M89.9809 117.982H105.151C105.147 117.971 105.142 117.96 105.137 117.95C104.344 115.995 98.8644 107.738 98.7045 107.379C98.5446 107.019 98.0698 106.741 98.0698 106.461C98.0698 106.182 98.1492 105.902 98.5068 104.622C98.8644 103.342 99.1025 99.5567 99.3405 97.5629C99.5785 95.5691 99.8165 92.1774 99.8165 92.1774C99.9758 91.896 100.177 91.6405 100.412 91.4196C100.77 91.1008 101.802 90.2633 102.121 90.0229C102.44 89.7826 102.479 89.2259 102.597 88.5515C102.715 87.8771 102.597 87.1549 102.637 86.7956C102.678 86.4363 102.637 85.8391 102.32 84.9563C102.003 84.0734 101.505 83.334 101.168 83.5596C100.692 83.8797 101.29 85.3548 101.29 85.3548C101.29 85.3548 100.535 85.8735 100.456 86.0733C100.377 86.2732 99.3441 86.9108 99.0658 86.9905C98.7875 87.0702 97.9148 87.7483 97.7159 88.1076C97.5169 88.4669 97.2398 89.5791 97.1202 90.3418C97.0006 91.1045 96.1303 96.5954 96.1303 96.5954L96.04 97.2085C95.9314 98.6106 95.7101 100.002 95.3784 101.368C95.3784 101.368 95.2747 103.661 94.5496 103.557C93.8246 103.452 91.8008 103.189 91.5408 104.442C91.2809 105.695 91.5933 106.422 91.8521 106.894C92.1109 107.366 91.2296 108.405 90.8671 108.77C90.5046 109.136 89.6746 110.333 89.6746 110.855C89.6746 111.377 89.6221 112.158 89.6221 112.158L90.3996 113.199C90.3996 113.199 90.2446 114.711 90.2958 115.388C90.3471 116.065 90.2958 116.169 90.0883 116.899C89.9968 117.252 89.9606 117.617 89.9809 117.982ZM99.1354 88.3234C99.1354 88.3234 99.7103 87.7557 99.8165 87.6012C99.896 87.4906 99.9855 87.3876 100.084 87.2934C100.084 87.2934 101.138 87.2063 101.406 87.1291L101.425 87.4283C101.337 87.4665 101.254 87.5182 101.181 87.5816C101.094 87.6686 101.066 87.7557 100.999 87.7839C100.872 87.8237 100.752 87.8855 100.645 87.9666C100.568 88.0537 100.472 88.0635 100.377 88.1309C100.282 88.1983 99.8019 88.2462 99.62 88.2646C99.4381 88.283 99.1379 88.3259 99.1379 88.3259L99.1354 88.3234Z" fill="#7F7F81"/>
<path d="M2.23248 109.599C2.35454 107.918 3.20896 105.018 2.98314 103.395C2.75733 101.771 2.52176 101.017 2.80982 99.683C3.09788 98.3489 3.04051 97.8854 3.44453 97.4206C3.84855 96.9559 4.08046 96.8406 4.08046 96.8406C4.08046 96.8406 4.59922 97.7689 4.8885 97.7112C5.17778 97.6536 5.06183 91.9702 5.29252 90.4619C5.52321 88.9537 5.58058 82.2856 5.92723 81.5891C6.27388 80.8926 6.6779 79.5046 6.44721 78.401C6.21651 77.2974 5.81249 76.1938 5.75391 75.6751C5.69532 75.1565 4.82991 73.7034 4.54185 73.2975C4.26778 72.8668 4.01719 72.4214 3.79118 71.9634C3.79118 71.9634 4.54185 71.4423 5.00324 71.9058L4.08046 70.0555C4.08046 70.0555 4.31116 69.359 5.34989 69.8813C6.38862 70.4037 6.50457 71.0989 6.79386 71.7942C7.08314 72.4895 8.29397 74.6365 8.52466 75.0424C8.75536 75.4483 9.10201 75.3907 9.50114 76.146C9.80076 76.731 10.0705 77.331 10.3092 77.9436C10.3092 77.9436 11.0025 75.8591 11.9265 76.0871C12.8505 76.3152 12.6186 76.4354 12.2145 77.1319C11.8105 77.8284 11.2381 79.1036 11.116 79.6247C10.9274 80.3143 10.6142 80.9631 10.192 81.5388C9.78799 82.06 9.26801 81.9447 9.15328 82.9882C9.03854 84.0317 9.21064 89.4258 9.26801 91.3975C9.32538 93.3693 9.67203 96.7928 9.84536 97.7186C10.0187 98.6444 10.076 100.039 10.2494 100.386C10.4227 100.733 11.1734 101.489 11.4041 102.357C11.6348 103.225 12.7321 104.677 12.6161 106.649C12.5002 108.621 12.3281 108.389 12.3281 108.389C12.3281 108.389 13.0787 109.723 12.9054 110.596C12.7321 111.469 12.5014 111.408 12.6161 111.7C12.7309 111.992 13.5401 112.681 13.7708 113.266L13.7806 113.286C13.796 113.931 13.82 114.578 13.8526 115.225C13.5902 115.689 13.2911 116.206 13.3643 116.396C13.4644 116.641 13.8245 116.421 13.9185 116.468C13.9494 116.976 13.9832 117.485 14.0198 117.994H0C1.05704 114.798 2.15558 110.746 2.23248 109.599Z" fill="#7F7F81"/>
<path d="M57.5932 117.523C57.8813 117.407 58.4013 117.175 58.4013 116.711C58.4013 116.248 58.5746 115.029 58.7479 114.855C58.9213 114.681 59.036 114.275 59.2667 113.928C59.4974 113.581 60.0174 112.594 60.3652 112.071C60.7131 111.549 61.808 110.505 61.808 110.505L62.1546 110.042C62.1546 110.042 63.424 105.808 63.8281 103.373C64.2321 100.937 64.4066 97.3421 64.4066 97.0515C64.4066 96.7609 63.9452 97.0515 64.0026 96.588C64.06 96.1245 64.3493 96.0657 64.2333 95.6598C64.1173 95.2539 63.8293 94.3845 63.5412 94.0939C63.2532 93.8033 62.6172 92.5857 62.3865 92.2387C62.1558 91.8917 61.8092 89.7446 61.4625 89.2811C61.1159 88.8176 60.4861 88.4693 60.4861 88.3001C60.4861 88.1309 61.0634 87.7201 61.6407 88.126C62.2181 88.5319 63.0847 89.5754 63.0847 89.5754C63.0847 89.5754 63.6621 85.5166 64.5275 85.5166C65.3929 85.5166 64.8155 86.9084 64.5848 87.4884C64.3541 88.0684 64.3541 89.3436 64.3541 89.3436L64.4115 89.6919L64.7582 89.3436C64.7582 89.3436 65.0474 87.6036 65.5088 87.6036C65.9702 87.6036 66.4853 87.7778 66.6074 88.3001C66.6074 88.3001 67.4728 88.1775 67.6461 88.7636L67.8194 89.3436C67.8194 89.3436 68.4541 89.3436 68.6848 89.6919C68.9155 90.0401 69.0888 90.9095 68.9741 91.1412C68.8594 91.373 68.9155 92.7647 68.852 93.3484C68.7886 93.9321 68.6787 95.0222 68.6787 95.0222L68.3907 95.6022C68.3907 95.6022 68.968 95.7174 68.7947 96.1822C68.6214 96.6469 68.2747 96.5292 68.2747 96.5292C68.2747 96.5292 68.044 97.6328 68.1014 98.2115C68.1587 98.7903 68.6214 104.069 68.5054 105.113C68.3894 106.156 68.448 109.868 68.2173 110.68C68.2173 110.68 71.9695 114.334 71.8535 114.971C71.6717 115.987 71.4345 116.992 71.1431 117.982H57.3369C57.4126 117.745 57.4993 117.56 57.5932 117.523Z" fill="#7F7F81"/>
<path d="M156.465 117.914C157.685 117.278 157.821 115.778 158.183 115.187C158.546 114.596 159.902 109.87 160.084 109.279C160.266 108.688 160.084 107.417 160.084 106.553C160.084 105.69 160.45 105.008 160.4 104.101C160.35 103.194 159.947 99.602 159.947 99.602C160.359 99.5169 160.766 99.4109 161.168 99.2845C161.168 99.2845 161.032 97.7848 160.715 97.4219C160.398 97.0589 159.128 95.7849 158.951 95.3765C158.774 94.9682 158.363 93.059 158.363 92.7856C158.349 92.5684 158.303 92.3544 158.227 92.1504C158.227 92.1504 156.464 91.8316 156.282 91.7825C156.282 91.7825 155.875 91.01 157.413 91.2822L158.092 90.9647C158.092 90.9647 155.83 90.8286 155.332 90.7378C154.834 90.6471 154.699 90.1014 155.332 90.056C155.966 90.0107 157.323 90.1014 157.323 90.1014C157.323 90.1014 157.504 89.465 157.911 89.5104C158.319 89.5558 158.996 90.0107 159.449 90.0107H160.711C160.711 90.0107 157.455 86.4204 157.416 85.6932C157.416 85.6932 157.641 84.8349 158.456 85.8293C159.27 86.8238 159.723 87.2836 159.723 87.2836C159.723 87.2836 159.044 84.7846 159.497 84.8753C159.95 84.9661 161.215 88.0107 161.486 88.5539C161.757 89.0972 162.3 89.7348 162.573 89.8255C162.845 89.9163 163.342 90.0082 163.477 90.5527C163.596 90.9988 163.672 91.4554 163.703 91.9162C163.748 92.4619 163.793 93.9615 163.975 94.7365C164.157 95.5114 164.156 96.2361 164.472 96.9179C164.788 97.5997 165.196 98.1907 165.151 98.4629C165.105 98.7351 165.558 98.3722 165.558 98.3722C165.558 98.3722 165.784 100.326 165.829 100.69C165.874 101.054 166.327 102.416 166.147 103.598C165.966 104.78 166.553 106.051 166.553 107.097C166.553 108.143 165.92 112.959 165.965 114.504C165.996 115.562 166.197 116.877 166.378 117.98H156.357C156.391 117.956 156.427 117.934 156.465 117.914Z" fill="#7F7F81"/>
<path d="M167.633 88.1346C167.502 88.1028 167.375 88.0525 167.258 87.985C167.169 87.9556 167.014 87.8759 166.981 87.8624C166.948 87.8489 167.001 87.7729 167.14 87.7398C167.279 87.7066 168.622 87.7692 168.622 87.7692C168.622 87.7692 168.226 88.0978 168.098 88.1763C167.97 88.2548 167.821 88.164 167.633 88.1346Z" fill="#7F7F81"/>
<path d="M166.726 86.8238C166.605 86.8745 166.492 86.9413 166.389 87.0224C166.359 87.0518 166.181 87.0825 166.145 87.042C166.07 86.9561 165.991 86.8742 165.908 86.7968C165.877 86.787 165.976 86.6877 166.145 86.657C166.313 86.6264 167.677 86.6178 167.677 86.6178C167.586 86.6872 167.482 86.7346 167.37 86.7563C167.154 86.7641 166.939 86.7867 166.726 86.8238Z" fill="#7F7F81"/>
<path d="M167.748 117.982H179.588C179.911 116.126 180.258 114.331 180.258 114.331C180.437 112.759 180.1 112.6 179.546 111.347C178.991 110.093 178.691 109.63 178.475 108.159C178.259 106.687 177.921 105.216 177.584 104.616C177.247 104.016 177.049 103.402 177.069 102.964C177.129 102.308 176.992 101.65 176.674 101.074C176.237 100.297 175.92 99.1435 175.901 98.7437C175.881 98.344 175.643 98.366 175.643 98.2263C175.643 98.0865 175.115 96.1613 174.993 95.764C174.928 95.5368 174.813 95.3272 174.656 95.1509L174.557 94.6335C174.458 94.116 174.636 93.8181 174.313 93.3202C173.989 92.8224 173.501 92.1259 173.223 91.3706C172.945 90.6152 172.411 87.3694 172.332 86.8925C172.252 86.4155 172.134 85.7975 171.975 85.5792C171.817 85.3609 171.222 85.2003 170.885 85.0409C170.549 84.8815 170.031 83.5094 169.836 83.1513C169.64 82.7933 169.439 82.5541 169.202 82.5137C168.722 82.3905 168.251 82.231 167.795 82.0367C167.513 81.8969 167.198 81.8351 166.884 81.8577C166.547 81.8773 165.893 81.8577 165.893 81.8577C165.811 81.9229 165.754 82.0141 165.73 82.1164C165.717 82.2537 165.931 82.6069 166.281 82.7197C166.632 82.8325 167.51 82.8963 167.585 82.922C167.659 82.9478 167.673 83.0974 167.951 83.2237C168.128 83.3086 168.289 83.4235 168.427 83.5633C168.317 83.6123 168.193 83.6214 168.077 83.5891C167.921 83.5481 167.761 83.5271 167.6 83.5265C167.462 83.5265 167.261 83.4382 167.124 83.4248C166.895 83.3745 166.669 83.3115 166.447 83.2359C166.139 83.153 165.825 83.0943 165.507 83.0606C165.186 83.039 164.872 82.958 164.58 82.8215C164.192 82.6449 164.128 83.0471 164.154 83.3242C164.179 83.6013 164.38 83.7154 165.118 84.017C165.857 84.3187 166.284 84.4952 166.798 84.521C167.312 84.5467 167.939 85.0115 168.039 85.15C168.139 85.2886 168.051 85.2886 167.925 85.3389C167.737 85.427 167.54 85.4945 167.337 85.54C167.149 85.5657 166.021 85.7165 165.695 85.8048C165.37 85.8931 164.68 85.8674 164.68 85.8674C163.514 85.15 163.215 86.2413 163.406 86.5614C163.596 86.8814 164.105 87.264 164.748 87.5203C165.392 87.7765 165.512 88.4154 165.894 88.6717C166.276 88.928 166.086 89.183 166.405 89.8868C166.723 90.5907 167.747 91.7421 168.187 91.9346C168.626 92.1271 169.079 92.9573 169.843 93.2834C170.607 93.6096 170.544 95.7788 170.544 95.7788C170.544 95.7788 170.097 96.6101 170.352 96.9302C170.607 97.2502 170.544 98.6567 170.544 98.6567C170.544 98.6567 170.666 100.257 170.666 100.448C170.666 100.639 170.347 101.472 170.411 101.92C170.474 102.367 169.838 104.74 169.838 104.985C169.838 105.23 169.393 106.84 169.138 108.376C168.882 109.911 168.755 114.773 168.564 115.284C168.372 115.795 168.055 117.716 168.055 117.716C167.944 117.794 167.842 117.883 167.748 117.982ZM167.674 86.6153C167.584 86.6847 167.479 86.7322 167.368 86.7539C167.152 86.7626 166.938 86.786 166.726 86.8238C166.605 86.8745 166.492 86.9413 166.389 87.0224C166.359 87.0519 166.181 87.0825 166.145 87.0421C166.07 86.9561 165.991 86.8742 165.908 86.7968C165.877 86.787 165.976 86.6877 166.145 86.657C166.313 86.6264 167.669 86.6153 167.669 86.6153H167.674ZM168.622 87.7766C168.622 87.7766 168.227 88.1052 168.099 88.1837C167.971 88.2621 167.822 88.164 167.635 88.1346C167.503 88.103 167.377 88.0527 167.259 87.985C167.17 87.9556 167.015 87.8759 166.982 87.8624C166.949 87.8489 167.001 87.7729 167.141 87.7398C167.28 87.7067 168.622 87.7766 168.622 87.7766Z" fill="#7F7F81"/>
<path d="M139.595 112.735C139.932 112.285 139.886 111.815 139.624 111.352C139.832 111.193 139.973 111.056 139.973 110.984C139.973 110.722 140.286 108.531 140.391 108.106L140.547 107.478C140.547 107.478 138.099 101.408 136.954 99.4733C135.809 97.5383 134.505 97.0135 133.933 96.9093C133.36 96.8051 132.474 95.9149 132.057 95.1301C131.639 94.3453 131.172 93.8217 131.224 93.5078C131.277 93.1939 131.119 91.6771 131.068 91.4674C131.017 91.2577 131.537 90.7869 132.265 92.2031C132.994 93.6194 132.943 93.9296 132.943 93.9296C132.943 93.9296 134.041 93.7727 134.245 93.7727C134.449 93.7727 134.611 93.1449 134.453 92.6225C134.294 92.1001 134.349 91.3141 133.984 90.7905C133.619 90.267 132.994 89.0641 132.578 88.7501C132.162 88.4362 131.479 88.0144 131.432 87.8612C131.384 87.7079 130.912 87.3376 131.537 87.1254C132.162 86.9133 133.203 87.9102 134.036 88.4865C134.472 88.7712 134.873 89.1044 135.234 89.4797C135.234 89.4797 135.755 88.9574 134.245 88.0156C132.735 87.0739 132.057 86.4976 132.838 85.974C132.838 85.974 134.296 86.4976 134.87 87.0776C134.87 87.0776 135.703 87.1291 136.12 87.2861C136.606 87.4974 137.075 87.7432 137.526 88.0218C137.682 88.126 138.567 90.1664 138.829 90.5845C139.09 91.0027 138.932 91.4748 138.829 91.7887C138.725 92.1026 137.995 93.4109 138.307 93.8818C138.62 94.3527 138.932 94.4569 139.192 95.0332C139.452 95.6095 141.12 97.3875 141.485 97.8057C141.849 98.2238 143.361 99.7296 143.361 99.7296C143.361 99.7296 143.413 99.1545 143.621 99.049C143.828 98.9436 143.621 97.2183 144.298 96.642C144.975 96.0657 147.059 94.8113 149.09 95.0209C151.121 95.2306 154.767 95.2294 155.34 95.2294C155.912 95.2294 157.216 95.1252 157.216 95.1252C157.216 95.1252 159.507 98.7878 159.403 99.5199C159.299 100.252 159.454 100.828 159.507 101.403C159.559 101.978 159.35 103.653 159.299 104.073C159.248 104.492 158.985 106.741 159.038 107.579C159.09 108.416 158.829 110.927 158.622 111.764C158.414 112.6 157.997 113.176 157.523 113.752C157.05 114.329 156.791 114.747 156.273 115.479C155.756 116.211 155.335 116.735 155.44 117.101C155.508 117.389 155.549 117.682 155.562 117.978H138.309C137.905 116.34 138.164 114.574 139.595 112.735Z" fill="#7F7F81"/>
<path d="M182.844 117.809C183.189 117.012 183.292 116.839 183.395 116.943C183.497 117.047 185.428 113.55 187.737 110.92C190.045 108.29 191.596 105.727 192.044 104.412C192.492 103.098 192.492 101.435 193.25 100.224C194.008 99.0122 195.282 96.5194 195.42 96.5893C195.42 96.5893 196.214 94.4079 196.662 94.4422C196.662 94.4422 196.49 93.8892 197.282 94.1969C198.074 94.5047 197.248 97.5886 196.902 98.8357C196.902 98.8357 197.696 97.1043 198.074 96.0657C198.074 96.0657 199.349 95.3042 198.488 98.5586C197.626 101.813 197.488 102.02 197.522 102.193C197.556 102.366 197.488 103.405 197.488 103.405L197.868 103.439C197.868 103.439 198.522 101.882 199.246 101.12C199.969 100.359 201.077 100.22 200.796 101.05C200.515 101.88 200.348 100.773 199.866 102.85C199.384 104.927 199.211 104.444 199.004 105.066C198.796 105.688 197.73 106.415 197.212 106.796C196.695 107.178 195.524 107.489 194.628 108.596C193.702 109.789 192.885 111.064 192.187 112.405C191.635 113.478 190.119 115.866 189.568 117.735C189.543 117.821 189.52 117.898 189.497 117.98H182.763C182.794 117.913 182.824 117.854 182.844 117.809Z" fill="#7F7F81"/>
<path d="M115.396 114.763C115.948 113.868 116.416 112.801 116.457 112.503C116.499 112.205 117.137 106.916 117.264 104.741C117.391 102.566 117.386 97.4918 117.142 96.8517C116.898 96.2116 116.251 95.4869 116.123 94.7671C115.995 94.0473 116.123 93.4882 115.656 92.7206C115.19 91.953 114.468 91.0566 114.128 90.4595C113.884 90.0167 113.699 89.5439 113.577 89.053C113.534 88.8813 114.086 88.37 115.062 89.4368C116.038 90.5036 116.161 91.3558 116.972 91.4404C117.784 91.525 118.331 91.6967 118.543 91.4404C118.756 91.1842 119.642 90.289 119.642 90.1615C119.642 90.034 118.878 88.4129 119.005 88.077C119.131 87.741 119.599 87.5215 119.642 87.9543C119.684 88.3872 119.938 88.679 120.066 88.8924L120.189 89.1057C120.189 89.1057 121.122 88.2952 121.122 87.9114C121.122 87.5276 120.868 85.7803 121.244 85.3106C121.62 84.841 121.838 85.0114 121.838 85.0114L121.966 85.8698C121.966 85.8698 122.178 83.7852 123.282 84.1641C123.404 84.2083 123.069 85.2297 123.069 85.2297C123.069 85.2297 123.494 85.2726 123.408 85.5289C123.323 85.7852 123.112 86.3873 123.112 86.9366C123.112 87.4859 122.857 87.8317 122.773 88.5993C122.688 89.3669 122.22 89.9212 122.135 90.5183C122.051 91.1155 122.013 91.9677 121.838 92.3944C121.662 92.8211 121.073 94.1859 121.116 94.5697C121.159 94.9535 120.862 95.8486 120.82 96.4458C120.768 96.929 120.782 97.4171 120.862 97.8964C120.947 98.3648 120.862 99.0907 120.862 99.7725C120.862 100.454 121.116 104.08 121.202 105.829C121.287 107.13 121.443 108.425 121.668 109.71C121.668 109.71 122.644 113.035 122.814 113.889C122.981 114.79 122.893 115.721 122.56 116.575C122.486 116.771 122.306 117.294 122.072 118.002H114.162C114.629 116.583 115.125 115.203 115.396 114.763Z" fill="#7F7F81"/>
<path d="M73.2543 116.147C73.2188 115.803 73.1622 115.461 73.0847 115.123C73.0847 115.123 72.3413 115.23 72.1717 115.039C72.002 114.847 72.1717 114.782 72.2571 114.633C72.3425 114.483 72.8515 114.142 72.7661 113.887C72.6806 113.632 72.5122 111.312 72.8881 110.411C73.2641 109.51 73.2702 109.345 73.8427 108.642C74.4151 107.938 74.7129 107.191 74.8191 107.021C74.9253 106.85 75.1585 106.616 75.2866 106.317C75.4148 106.018 75.5625 105.805 75.7529 105.358C75.9433 104.91 75.8591 104.745 76.1191 104.334C76.3791 103.923 76.5011 103.721 76.7562 103.546C77.0113 103.37 78.1355 102.905 78.1355 102.905C78.1355 102.905 77.4776 97.6168 77.3079 97.3397C77.1383 97.0626 75.4185 93.5654 75.355 93.4159C75.2915 93.2663 76.6073 92.3491 76.65 92.1995C76.6928 92.0499 76.0141 89.4074 75.7578 88.939C75.5015 88.4706 74.0599 86.4437 73.8048 84.44C73.5497 82.4364 73.5509 81.6455 73.4875 81.5401C73.424 81.4346 72.7221 79.9619 72.511 79.8332C72.2998 79.7044 71.4918 79.2581 71.3856 79.1514C71.2794 79.0447 71.0035 78.6818 71.2159 78.5543C71.4283 78.4267 72.1704 78.4905 72.7014 78.7247C73.2324 78.9589 74.0599 79.2581 74.2088 79.3648C74.3577 79.4715 74.5909 79.2422 74.3565 78.7885C74.1222 78.3348 72.2986 75.761 72.1289 75.5268C71.9593 75.2926 71.6614 74.9137 72.0642 74.5458C72.467 74.1779 73.1262 75.3563 73.3593 75.4839C73.5924 75.6114 73.9696 76.1656 74.1454 76.3581C74.3211 76.5507 75.3977 77.5941 75.5674 77.8075L75.9067 78.2342C75.9067 78.2342 75.8005 76.8057 75.5881 76.4648C75.3757 76.1239 74.0819 73.6286 74.0184 73.2436C73.955 72.8586 74.0404 72.6305 74.4859 72.6673C74.9314 72.704 75.25 73.3711 75.5051 73.777C75.7602 74.1828 76.7147 75.6739 76.9479 75.9302C77.181 76.1865 77.3726 76.3569 77.4154 76.6549C77.4382 76.8713 77.4791 77.0854 77.5374 77.295C77.5374 77.2312 77.7925 76.634 77.7498 76.314C77.7071 75.994 77.5582 75.013 77.4947 74.7579C77.4312 74.5029 77.1126 73.6482 77.1126 73.4361C77.1126 73.224 76.8014 72.4012 77.7632 72.5876C78.2197 72.6758 78.2454 73.5121 78.553 74.059C78.8605 74.6059 78.8813 75.3355 79.0558 75.7757C79.2304 76.2159 79.4074 76.612 79.2755 77.0951C79.1437 77.5782 78.9472 78.2183 78.8813 78.8118C78.8154 79.4052 78.7714 80.5726 78.7714 81.079C78.7714 81.5854 78.7055 83.0814 78.8154 84.3579C78.9252 85.6344 78.9252 86.3615 79.0998 86.6251C79.494 87.2205 79.8069 87.8663 80.0299 88.5454C80.3582 89.5349 80.7085 90.614 80.7085 90.614C80.8763 90.6761 81.0261 90.7788 81.1448 90.9132C81.2634 91.0476 81.3471 91.2093 81.3884 91.384C81.5202 91.9787 83.1192 95.2576 83.3816 95.742C83.6441 96.2263 84.1262 97.4586 84.302 97.7443C84.5718 98.2525 84.7989 98.7824 84.9806 99.3286C85.0246 99.5493 86.2952 101.421 86.6895 101.839C87.0837 102.257 88.5082 103.401 88.4422 103.379C88.3763 103.357 88.1359 103.885 88.0919 104.259C88.048 104.633 88.2018 105.007 88.07 105.425C87.9976 105.649 87.9393 105.877 87.8954 106.108C87.8954 106.108 88.4422 107.334 88.64 109.453C88.8377 111.572 88.9244 112.292 88.9244 112.557C88.9244 112.822 88.9464 113.261 88.9464 113.261C88.9464 113.261 89.6482 114.009 89.9985 114.732C89.9985 114.732 91.971 116.242 93.4064 117.979H73.1103C73.214 117.344 73.3166 116.573 73.2543 116.147Z" fill="#7F7F81"/>
<path d="M24.8994 115.161C25.1252 114.07 25.9406 111.023 26.4373 109.659C26.9341 108.296 30.1492 103.385 30.5569 102.248C30.9645 101.111 32.5477 98.2017 32.5477 97.9283C32.5477 97.6548 32.8199 97.7922 32.7747 97.6561C32.7295 97.52 33.4533 96.9743 33.363 95.7922C33.2727 94.6102 32.4122 92.018 32.4122 91.4723C32.4122 90.9267 32.7295 90.7452 32.7784 90.3356C32.8272 89.9261 32.7784 89.1536 32.8235 88.6079C32.8687 88.0622 33.0493 87.7496 33.2764 87.2897C33.5034 86.8299 34.2711 85.1978 34.3163 84.7883C34.3615 84.3787 35.0413 84.288 35.493 84.971L35.4478 85.6074C35.5487 85.7104 35.6053 85.8491 35.6053 85.9936C35.6053 86.1382 35.5487 86.2769 35.4478 86.3799L35.4026 87.8808C35.4026 87.8808 35.8103 86.4706 36.3987 86.6546C36.987 86.8385 36.9418 87.8366 36.7648 88.836C36.5878 89.8353 36.583 90.3822 36.7197 90.7979C36.8564 91.2136 37.1261 91.7065 37.2165 91.9346C37.3068 92.1627 37.3532 92.5256 37.4886 92.6617C37.6241 92.7978 38.8008 93.2528 39.0278 93.3435C39.2549 93.4342 40.0226 93.3435 40.0226 93.3435C40.0226 93.3435 42.0976 91.514 43.2291 91.514C44.3606 91.514 44.4961 92.0143 44.4961 92.0143C44.4961 92.0143 43.5916 92.6961 43.2755 93.2871C42.9594 93.8781 42.4614 93.9235 42.144 94.2423C41.8267 94.5611 41.1932 95.1509 41.0577 95.4685C40.9222 95.7861 39.9262 96.7413 39.2475 96.924C38.5689 97.1067 37.6608 98.0607 37.618 98.469C37.5876 98.7236 37.5111 98.9705 37.3922 99.1974L37.618 99.515C37.618 99.515 37.0749 100.242 36.8491 100.652C36.6232 101.061 36.3962 102.97 36.2607 103.289C36.1252 103.608 35.8945 104.198 35.9434 104.426C35.9922 104.654 35.7176 105.517 35.7176 105.744C35.7176 105.971 35.6272 107.017 35.6724 108.017C35.7176 109.018 35.7176 110.245 35.6724 110.564C35.6272 110.883 36.2607 111.018 35.8982 111.837C35.5357 112.656 35.2647 112.746 35.3099 113.431C35.355 114.117 36.0789 114.657 35.853 115.025C35.6272 115.393 35.2647 115.935 35.1292 116.435C34.9937 116.936 35.0841 117.754 35.2196 117.982H24.5771C24.6406 117.063 24.7615 115.826 24.8994 115.161Z" fill="#7F7F81"/>
<path d="M66.7465 117.736C66.4401 116.966 63.2959 114.271 62.3767 113.732C61.4576 113.192 61.3795 113.118 60.8424 113.039C60.3054 112.959 58.4659 111.576 58.1571 111.499C57.8483 111.421 55.5536 110.03 55.5536 110.03C55.5536 110.03 55.4657 108.29 55.3546 108.046C55.279 107.885 55.1821 107.735 55.0666 107.601C55.0666 107.601 55.1777 107.2 55.1557 107.11C55.1337 107.021 56.5069 104.439 56.596 103.922C56.596 103.922 56.773 104.367 57.1941 104.39C57.6152 104.414 58.1461 103.834 58.3231 103.433C58.5001 103.032 59.0103 101.786 59.0103 101.319C59.0103 100.852 58.7442 100.628 58.4122 100.562C58.2288 100.52 58.0376 100.528 57.8581 100.584C57.8581 100.584 58.2121 99.6278 58.2572 98.8038C58.3024 97.9798 58.4781 96.8235 58.5453 96.8235C58.6124 96.8235 64.0575 94.4189 65.6479 93.6353C65.6785 93.9811 65.7529 94.6837 65.9104 95.5531C66.1362 96.7965 66.4731 97.2208 67.5423 97.8989C68.6116 98.5769 68.0208 99.4819 68.0208 99.4819L67.5704 99.6511C67.12 99.8215 67.43 100.216 67.4019 100.33C67.3739 100.444 67.3177 101.234 67.1774 101.802C67.037 102.37 67.5704 103.809 67.5704 103.809C67.4581 103.3 67.43 102.142 67.43 102.142C67.712 102.395 68.0208 104.233 68.0208 104.233C68.6677 103.668 67.9927 102.026 67.9927 102.026C68.2747 102.336 68.387 103.241 68.387 103.241C68.5273 102.874 68.3028 102.421 68.1331 101.998C67.9634 101.575 68.1331 100.839 68.4712 100.415C68.8093 99.9908 68.2185 99.5383 68.2185 99.5383C68.7251 98.2385 67.4862 97.7296 66.5854 96.7683C65.853 95.9847 65.8103 94.1933 65.8188 93.5495C65.9324 93.4919 66.0154 93.4465 66.0544 93.4269C65.9592 93.2877 65.8478 93.1605 65.7224 93.048C65.6113 92.9818 52.6083 85.7717 52.3874 85.6601C52.1664 85.5485 51.5012 86.1714 50.9471 86.3958C50.3929 86.6202 39.8494 90.4681 39.6943 90.6238C39.661 90.6629 39.6366 90.7089 39.6228 90.7586C39.6091 90.8082 39.6063 90.8602 39.6146 90.9111C39.623 90.9619 39.6423 91.0102 39.6713 91.0528C39.7003 91.0953 39.7381 91.1309 39.7822 91.1572C39.9604 91.2688 46.0073 94.918 46.0073 94.918C46.0073 94.918 45.6533 96.6101 45.6081 96.9657C45.563 97.3213 45.4312 98.1674 45.4531 98.3906C45.4751 98.6137 45.4971 98.881 45.4971 98.881C45.4971 98.881 45.0088 98.6579 44.545 99.1925C44.0812 99.7271 44.2789 100.105 44.2789 100.75C44.2789 101.395 44.1459 101.976 44.213 102.063C44.2801 102.15 44.722 103.243 45.2981 103.221C45.8742 103.199 46.0305 103.042 46.0305 103.042C46.0305 103.042 46.2526 103.62 46.2526 103.688C46.2526 103.755 45.1883 105.179 44.9234 105.69C44.6585 106.201 43.9469 106.736 43.8151 106.916C43.6833 107.097 43.217 106.916 43.217 106.916C43.217 106.916 40.7758 106.316 40.2717 106.405C40.2717 106.405 38.2772 105.648 37.9452 105.537C37.6132 105.425 36.926 105.159 36.8601 104.98C36.7942 104.801 36.5049 104.046 36.5501 103.868C36.5952 103.69 36.9932 103.401 36.8601 102.577C36.7452 102.001 36.5435 101.445 36.262 100.93C36.262 100.93 34.9096 100.711 34.1565 100.711C33.4034 100.711 32.5172 101.134 32.2035 100.31C31.8898 99.4856 31.2954 97.0834 30.9182 96.4826C30.5411 95.8818 29.0361 93.8781 29.1679 93.2552C29.2997 92.6323 29.1911 90.7415 29.1679 89.7618C29.1679 89.7618 29.9662 89.9616 30.0541 88.1824C30.1419 86.4032 29.9662 84.9943 30.231 84.7552C30.4959 84.5161 31.4272 83.6197 31.4944 83.1525C31.5615 82.6853 31.5163 81.1281 31.7385 80.683C31.9606 80.2378 32.0033 79.3035 32.1816 79.0362C32.3598 78.7689 33.2667 77.9228 33.7976 77.523C34.3286 77.1233 34.7058 76.5654 34.7949 76.4771C34.884 76.3888 35.0829 75.8983 34.9718 75.0302C34.8608 74.162 35.0829 73.7843 35.039 73.6728C34.995 73.5612 34.8168 73.3834 34.8608 73.2718C34.9047 73.1602 35.4821 72.2258 35.4149 71.6924C35.3478 71.159 34.1748 71.0695 33.9087 71.3356L33.6475 71.5992C33.6475 71.5992 32.7394 71.1321 32.4733 71.1541C32.2072 71.1762 31.4553 71.11 31.1221 71.3552C30.9158 71.5097 30.7364 71.6974 30.5911 71.9107C30.5911 71.9107 29.8819 71.6446 29.5499 71.777C29.2179 71.9095 28.8627 72.2222 28.7749 72.2001C28.687 72.178 28.0657 72.2222 27.8216 72.4232C27.5775 72.6243 27.2467 73.5575 27.1356 74.0247C27.0245 74.4919 26.8121 76.1742 26.8121 76.1742C26.8121 76.1742 25.9358 75.9351 25.0594 78.0957C24.4004 78.7828 23.6499 79.3749 22.8293 79.8553C21.555 80.5763 17.8908 82.0158 16.6165 85.6969C15.3422 89.378 14.5415 91.2148 13.9885 91.7776C13.4356 92.3405 11.28 95.7015 10.1656 98.8197C9.0512 101.938 8.01491 103.776 8.01491 103.776C8.01491 103.776 6.81994 103.935 6.66005 104.655C6.50015 105.375 6.81994 108.416 6.50137 109.616C6.18279 110.817 5.54564 112.258 5.3064 112.898C5.06716 113.538 5.1465 115.297 5.3064 115.778C5.39306 116.039 5.40893 117.034 5.57249 117.977H66.8478C66.8087 117.887 66.7721 117.801 66.7465 117.736Z" fill="#272425"/>
<path d="M119.359 114.666C116.751 114.146 115.371 113.781 115.371 113.781C115.371 113.781 115.371 113.318 114.662 113.338C113.953 113.358 113.129 113.358 113.129 113.358L112.86 113.603C112.86 113.603 111.174 113.429 110.944 113.48C110.713 113.532 110.675 112.422 110.657 112.287C110.639 112.152 110.829 112.21 110.829 112.21C110.829 112.21 109.756 110.285 109.583 110.15C109.453 110.043 109.33 109.927 109.217 109.803C109.217 109.803 109.178 108.699 109.351 108.532C109.524 108.366 110.06 106.723 110.003 106.626C109.945 106.529 110.347 106.935 110.692 106.78C111.038 106.626 111.229 105.875 111.248 105.721C111.266 105.566 111.248 105.048 111.37 104.855C111.486 104.623 111.52 104.358 111.465 104.103C111.408 103.893 111.082 103.103 110.985 103.083C110.889 103.064 111.024 102.698 111.024 102.486C111.05 102.242 111.108 102.002 111.196 101.774C111.236 101.678 111.178 101.196 111.159 101.1C111.127 100.897 111.134 100.689 111.178 100.487C111.236 100.334 111.082 99.7946 111.082 99.7946L110.967 99.4475L111.408 99.9098C111.408 99.9098 111.331 99.6217 111.293 99.4868C111.255 99.3519 111.465 99.3519 111.465 99.3519L111.273 99.0049C111.273 99.0049 110.679 97.7922 110.584 97.6953C110.489 97.5984 110.276 97.0994 110.084 97.0025C109.893 96.9056 109.126 96.3281 109.031 96.1748C108.936 96.0215 108.974 95.7898 108.743 95.6549C108.478 95.4936 108.195 95.3643 107.9 95.2699C107.445 95.1073 106.977 94.9842 106.501 94.902C106.098 94.8444 105.331 94.902 105.102 94.8836C104.873 94.8652 105.236 94.3441 106.118 94.479C106.118 94.479 105.371 94.1712 104.316 94.7867C104.316 94.7867 103.396 94.8836 103.339 94.8836C103.283 94.8836 103.512 94.6519 104.072 94.479C103.76 94.4998 103.455 94.586 103.178 94.7319C102.901 94.8778 102.657 95.0803 102.462 95.3263C102.462 95.3263 101.925 96.2116 101.81 96.2116C101.695 96.2116 101.772 95.7493 101.772 95.7493C101.772 95.7493 101.293 96.3624 101.196 96.3857C101.1 96.409 100.66 96.7707 100.506 96.9044C100.353 97.0381 100.238 96.9816 100.123 97.2906C100.008 97.5997 99.8791 97.3483 99.663 97.6364C99.447 97.9246 99.1845 98.0987 99.1076 98.3489C99.0307 98.599 98.9929 98.5806 98.9538 98.908C98.9148 99.2354 98.916 99.1766 98.7439 99.4856C98.5718 99.7946 98.3777 100.121 98.4754 100.294C98.5857 100.5 98.6679 100.72 98.7195 100.948C98.7423 101.117 98.7939 101.28 98.8721 101.43C99.0179 101.82 99.1083 102.228 99.1406 102.643C99.1408 102.784 99.1739 102.922 99.237 103.048C99.237 103.048 98.8342 103.451 98.8147 103.971C98.7952 104.491 99.0063 104.876 98.988 105.358C98.9697 105.84 98.8721 106.094 99.0637 106.282C99.2653 106.453 99.5008 106.578 99.7546 106.65C99.8926 106.692 100.033 106.724 100.176 106.747C100.176 106.747 100.444 107.575 100.578 107.767C100.713 107.96 100.79 108.692 100.962 108.942C101.134 109.192 101.153 110.168 101.206 110.328C101.246 110.441 101.278 110.557 101.302 110.675C101.302 110.675 101.091 110.92 101.058 110.982C101.025 111.045 100.541 112.927 100.482 113.351C100.423 113.776 100.578 113.775 100.578 113.775C100.578 113.775 100.31 114.064 100.156 114.02C100.002 113.976 98.0811 112.442 97.4537 112.287C96.8263 112.133 96.2661 111.844 96.2856 111.613C96.3051 111.381 96.2466 110.438 96.227 110.245C96.2075 110.053 95.1346 107.8 94.9625 107.358C94.7904 106.915 94.7709 106.607 94.5414 106.491C94.3119 106.374 93.8505 106.222 93.5441 106.318C93.2378 106.414 92.8545 106.548 92.6238 106.472C92.3931 106.396 91.5509 105.721 90.9382 105.568C90.3254 105.414 90.0178 105.336 89.864 105.221C89.7102 105.105 87.4106 101.716 86.9346 101.158C86.4586 100.6 85.05 98.0129 84.7815 97.6843C84.5129 97.3556 83.7086 96.1049 83.5352 96.0277C83.3619 95.9504 83.152 95.5077 82.9249 95.4146C82.6979 95.3214 81.7556 93.5851 81.6409 92.9499C81.5261 92.3147 81.3967 91.5631 81.4102 91.178C81.4236 90.793 81.2759 89.8108 81.2759 89.584C81.2688 89.3839 81.2497 89.1845 81.2185 88.9868L79.8576 88.8912C79.8576 88.8912 79.4914 87.2149 79.3217 86.7146C79.1521 86.2144 78.7114 85.8097 78.4783 85.6172C78.3562 85.5166 78.1316 85.2898 77.9034 85.1034C77.9656 84.9624 78.0254 84.8165 78.0779 84.6657C78.8445 82.483 78.5466 78.2048 77.9925 77.3918L75.9053 76.7493C75.9053 76.7493 75.8625 72.899 75.3523 72.0431L72.9111 73.5661C73.1186 70.7998 72.7293 68.1708 70.7983 67.3124C66.6934 65.5013 67.8823 70.2418 66.3211 71.9438C66.2152 71.8482 66.0778 71.7953 65.9354 71.7954C65.8163 71.7953 65.6999 71.8318 65.602 71.8999C65.504 71.9681 65.4291 72.0647 65.3874 72.1768C65.2336 72.1339 64.882 72.151 64.2131 72.6979C63.2452 73.49 63.0792 74.0737 62.7204 74.4342C62.3615 74.7947 62.2223 75.3379 61.9733 75.3097C61.7243 75.2815 61.5168 75.5317 61.4619 76.1153C61.4619 76.1153 61.6828 75.5317 62.1113 75.463C62.1113 75.463 61.7243 75.7683 61.7939 76.1987C61.8635 76.6291 61.9733 76.6156 61.7378 76.9627C61.8678 76.8923 61.971 76.7805 62.031 76.645C62.0911 76.5094 62.1047 76.3576 62.0698 76.2134C61.9477 75.6984 62.3603 75.5047 62.6093 75.3551C62.8583 75.2055 63.2867 75.1099 63.3844 74.9664C63.482 74.8229 62.8168 75.772 62.7619 76.4109C62.7069 77.0497 62.7338 77.4813 62.5824 77.5647C62.5824 77.5647 62.9413 77.3415 62.9694 76.7162C62.9974 76.0908 63.3563 75.577 63.5089 75.3833C63.634 75.2311 63.7509 75.0723 63.8592 74.9075C63.814 75.0633 63.5967 75.994 63.6468 76.4808C63.6468 76.4808 63.7164 77.2447 63.5638 77.3563C63.5638 77.3563 63.8543 77.1613 63.8543 76.661C63.8543 76.1607 63.9922 75.2999 64.1167 75.0915C64.2412 74.883 64.3242 74.8548 64.6147 74.5495C64.8327 74.333 65.0233 74.0904 65.1823 73.8272C65.297 73.6384 65.601 73.2031 65.7548 72.9481C65.8428 72.9786 65.9368 72.9874 66.0289 72.9737C66.1211 72.96 66.2085 72.9242 66.284 72.8693C66.3594 72.8145 66.4206 72.7422 66.4623 72.6586C66.504 72.5749 66.5251 72.4825 66.5237 72.3889C66.5236 72.3105 66.5078 72.233 66.4774 72.1608C66.5518 72.0983 66.6263 72.0309 66.7032 71.9548C67.2622 71.3932 67.7834 67.3909 68.8624 67.2793C69.9414 67.1677 71.4257 67.6533 71.7296 68.3265C72.0335 68.9997 72.8464 69.6753 72.6975 72.0284C72.6585 72.6415 72.5938 73.2546 72.5193 73.8138L65.8951 77.9497L66.6189 91.1719L71.5172 88.5613C71.5172 88.5613 73.9877 88.733 74.2855 89.7593C74.6181 89.3696 74.9271 88.9601 75.2107 88.5331C75.3558 88.5621 75.5053 88.5587 75.6489 88.5233C76.0749 88.4007 76.33 88.9083 76.4582 89.2087C76.5864 89.5092 76.5009 90.7059 76.5009 90.7059C76.5009 90.7059 77.1393 92.9303 77.0539 92.9732C76.9684 93.0161 77.4371 95.6708 77.3956 95.8401C77.3541 96.0093 77.5177 96.9951 77.5177 96.9951C77.5177 96.9951 76.6633 96.9951 76.07 97.038C75.4768 97.081 74.8775 97.5089 74.8775 97.5089C74.8775 97.5089 75.2181 97.8939 75.8137 98.9644C76.4094 100.035 76.9647 100.29 76.8793 101.189C76.7939 102.088 76.8366 102.301 76.8366 102.301C76.8366 102.301 78.1146 103.884 78.7102 104.526C79.3059 105.169 80.1163 105.724 80.419 105.938C80.7218 106.151 81.0574 108.805 82.1657 111.201C83.274 113.597 84.2529 115.266 84.7632 115.822C85.2734 116.379 85.6176 116.803 86.5098 117.704C86.5941 117.79 86.6868 117.89 86.7833 117.995H124.108C122.92 116.677 121.164 115.028 119.359 114.666Z" fill="#272425"/>
<path d="M203.471 41.9484L203.603 41.7522C203.555 41.8152 203.511 41.8807 203.471 41.9484Z" fill="#272425"/>
<path d="M181.853 117.762C181.779 117.069 181.459 115.881 181.631 115.31C181.803 114.738 182.69 113.355 182.739 113.083C182.788 112.811 183.059 111.104 182.69 110.659C182.322 110.214 183.502 110.065 183.453 109.868C183.404 109.67 182.814 109.051 182.862 108.606C182.911 108.161 183.083 107.418 183.182 106.997C183.281 106.577 183.502 105.76 183.453 105.414C183.404 105.068 183.575 104.894 183.724 104.549C183.867 104.246 183.982 103.931 184.068 103.608C184.217 103.088 184.266 102.915 184.513 102.668C184.759 102.42 185.67 100.837 185.842 100.294C186.014 99.7504 186.064 98.7842 186.359 98.3881C186.655 97.992 187.615 97.027 187.615 96.3342C187.615 95.6414 187.393 94.5538 187.468 94.4054C187.542 94.257 187.862 93.0443 188.01 92.5244C188.157 92.0045 188.55 90.793 188.477 90.3479C188.404 89.9028 188.182 89.2835 188.305 88.9378C188.428 88.592 188.773 87.676 188.969 87.6269C189.166 87.5779 189.905 87.0322 190.077 86.6619C190.249 86.2916 190.644 85.4002 190.694 84.8557C190.744 84.3113 191.088 83.2727 191.304 83.0741C191.52 82.8754 191.87 82.8018 192.117 82.4609C192.364 82.1201 193.274 79.8381 193.274 79.0472C193.274 78.2563 193.64 77.1172 193.693 76.9443C193.745 76.7714 195.515 72.7384 195.59 72.4416C195.663 72.1046 195.855 71.8057 196.132 71.6005C196.427 71.4018 197.805 70.438 198.027 70.1401C198.249 69.8421 198.421 69.527 198.347 69.3737C198.272 69.2204 198.298 68.638 198.175 68.4589C198.052 68.2799 198.102 67.7404 198.003 67.6423C197.904 67.5442 197.978 67.2217 197.759 67.1972C197.539 67.1726 197.538 67.023 197.488 66.9519C197.438 66.8808 197.069 66.7288 196.971 66.6049C196.874 66.4811 197.02 66.2591 197.02 66.0605C197.02 65.8618 196.725 65.1457 196.898 64.9483C197.071 64.7509 197.508 64.3536 197.508 64.3536C197.508 64.3536 198.918 60.2544 199.696 57.8854C200.794 56.8799 203.261 53.888 203.682 53.1486C204.141 52.3405 203.997 51.0714 203.854 50.5527C203.719 50.0622 203.122 48.836 202.914 48.478C203.089 48.4361 203.246 48.3421 203.366 48.2084C203.487 48.0747 203.563 47.9075 203.587 47.729C203.611 47.5504 203.58 47.3689 203.498 47.2084C203.417 47.0479 203.289 46.9159 203.132 46.8299L203.107 46.803C203.109 46.533 203.128 46.2635 203.165 45.9961C203.222 45.6209 203.165 45.4774 202.964 44.1568C202.814 43.1697 203.237 42.3261 203.464 41.9594L202.935 42.743C202.907 42.5701 202.706 42.2243 202.504 41.6468C202.303 41.0692 201.787 40.2636 201.04 40.0037C200.58 39.8328 200.194 39.5063 199.948 39.0803C199.633 39.4555 199.92 39.9742 199.92 39.9742C199.375 39.5132 198.8 39.9166 198.8 39.9166C199.26 39.859 199.719 40.6952 199.719 40.6952C199.03 39.9166 198.657 40.4365 198.657 40.4365C199.116 40.3212 199.46 41.1281 199.46 41.1281C199.03 41.1857 198.657 40.7529 198.657 40.7529C198.6 41.1575 199.432 41.4739 199.432 41.4739C198.542 41.5891 198.398 41.1281 198.398 41.1281C198.255 41.6186 199.116 41.7056 199.116 41.7056C199.943 41.6222 200.65 42.4953 200.981 42.9907C200.647 42.6756 200.063 42.6572 200.063 42.6572C200.982 42.7148 201.326 44.4155 201.326 44.4155C200.925 43.6369 200.437 43.5216 200.437 43.5216C200.81 43.6087 201.326 44.7908 201.528 45.1083C201.729 45.4259 201.959 46.2904 202.044 46.7232C202.061 46.802 202.084 46.8794 202.111 46.955C201.981 47.0712 201.888 47.2236 201.843 47.393C201.799 47.5623 201.805 47.7411 201.862 47.9068C201.918 48.0724 202.022 48.2176 202.161 48.3241C202.299 48.4305 202.466 48.4934 202.64 48.5049C202.675 48.711 202.768 48.9029 202.906 49.0592C203.25 49.405 203.594 50.3859 203.681 51.2222C203.768 52.0585 203.336 53.4428 202.188 54.8272C201.476 55.6601 200.718 56.4531 199.919 57.2024C200.041 56.8345 200.124 56.5525 200.163 56.3943C200.459 55.3055 202.798 48.9476 202.798 48.9476C202.798 48.9476 200.015 52.6581 199.625 52.7819C199.234 52.9058 198.124 52.4361 197.803 52.4141C197.482 52.392 194.552 51.3007 194.429 51.3007C194.306 51.3007 191.474 55.0602 191.178 55.7285C190.883 56.3968 189.75 59.5628 189.75 59.5628C189.75 59.5628 188.691 60.6272 188.79 61.0232C188.889 61.4193 189.799 62.1366 189.799 62.1366C189.799 62.1366 191.154 62.334 191.844 62.5817C192.533 62.8294 193.444 63.5468 194.109 63.5713C194.774 63.5958 195.956 64.1648 195.956 64.1648L195.323 66.1316C195.323 66.1316 195.15 65.7637 194.88 65.9832C194.611 66.2027 194.436 66.8244 194.314 66.8734C194.192 66.9225 193.303 67.5663 193.107 67.6165C192.924 67.6531 192.754 67.7357 192.611 67.8567C192.469 67.9777 192.36 68.133 192.294 68.3081C192.122 68.7986 192.05 69.9169 192.023 70.4111C191.996 70.9052 192.047 71.1296 191.802 71.6986C191.557 72.2675 189.832 76.2012 189.832 76.2012C189.832 76.2012 175.429 80.1336 173.972 80.9012C172.514 81.6688 170.082 83.8208 170.057 85.0826C170.033 86.3443 170.476 88.0255 170.598 88.3933C170.72 88.7612 171.14 89.9028 171.067 90.1995C170.993 90.4963 170.822 90.6692 170.796 90.9169C170.769 91.1645 170.82 89.7544 170.229 88.5871C169.638 87.4197 169.367 86.6325 169.17 86.7306C168.972 86.8287 168.727 86.31 168.653 86.0881C168.58 85.8661 168.409 85.4946 167.988 85.5681C167.567 85.6417 167.347 85.6675 167.076 85.4946C166.805 85.3217 166.71 85.1476 166.362 85.2493C166.097 85.3431 165.825 85.4173 165.549 85.4713C165.23 85.5215 163.9 85.4468 163.531 85.6196C163.161 85.7925 162.989 85.9176 162.693 86.0402L161.785 86.4179C161.785 86.4179 160.943 86.4952 160.565 86.7257C160.186 86.9562 159.111 87.8795 158.734 88.2646C158.356 88.6496 158.123 88.4951 157.739 88.9562C157.354 89.4172 157.203 90.11 157.129 90.5711C157.054 91.0321 157.282 91.4171 156.976 92.1099C156.67 92.8027 156.516 91.9554 156.67 92.8015C156.823 93.6476 156.67 93.8781 156.44 94.4164C156.211 94.9547 156.516 94.9547 156.67 95.6426C156.823 96.3305 156.746 96.9498 157.129 97.2575C157.43 97.5175 157.712 97.8004 157.971 98.1036C157.971 98.1036 157.512 98.5647 158.048 99.4868C158.583 100.409 158.966 101.179 159.349 101.409C159.732 101.64 161.492 102.023 161.492 102.023C161.492 102.023 161.109 102.33 159.885 102.561C158.66 102.791 155.215 103.022 154.758 103.254C154.302 103.485 152.002 103.254 151.696 104.176C151.389 105.098 150.547 105.715 150.853 106.714C150.853 106.714 149.475 106.637 148.404 106.176C147.779 105.906 146.868 105.377 146.142 105.012C145.583 103.164 144.034 101.992 143.476 100.82C142.789 99.3777 142.415 98.187 142.54 97.8768C142.664 97.5666 143.85 96.8112 143.663 95.9958C143.643 95.9099 143.615 95.661 143.586 95.3716C143.609 95.3595 143.63 95.3443 143.648 95.3263C144.136 94.8652 144.118 93.8328 144.022 93.6537C143.9 93.422 143.621 93.3558 143.427 93.3386C143.377 93.0793 143.24 92.845 143.039 92.674C142.788 92.4778 140.232 92.2976 139.794 93.2381C139.794 93.2381 139.294 94.9927 139.42 95.7456C139.546 96.4985 139.176 97.1251 139.482 97.8768C139.789 98.6284 140.356 103.456 140.792 104.522C141.079 105.219 141.312 106.506 141.736 107.471C141.334 107.994 141.075 108.452 141.037 108.921C140.964 109.836 140.373 112.261 140.274 112.632C140.176 113.002 139.93 113.324 140.102 113.646C140.274 113.967 140.865 114.883 140.89 115.131C140.914 115.378 140.176 115.499 140.401 115.774C140.627 116.05 141.583 117.185 141.953 117.63C142.033 117.725 142.146 117.852 142.273 117.998H181.893C181.865 117.899 181.859 117.817 181.853 117.762Z" fill="#272425"/>
<path d="M27.6962 37.8431C27.6836 37.7791 27.6575 37.7186 27.6198 37.6655C27.5821 37.6124 27.5336 37.5679 27.4775 37.5351C27.4214 37.5023 27.359 37.4818 27.2944 37.4751C27.2299 37.4684 27.1646 37.4755 27.103 37.4961C27.103 37.4961 22.9712 38.6892 19.047 39.8099C19.5167 38.5337 20.1358 37.3182 20.8913 36.1889C21.0054 36.2533 21.134 36.2875 21.2648 36.2883C21.3958 36.2887 21.5248 36.256 21.6399 36.1933C21.7551 36.1306 21.8527 36.0399 21.9239 35.9295C21.9951 35.819 22.0375 35.6924 22.0474 35.5612C22.0572 35.43 22.0341 35.2984 21.9801 35.1786C22.2842 34.942 22.5759 34.6899 22.8541 34.4232C23.3899 33.9033 22.8345 33.2877 23.1214 32.8843C23.4082 32.4809 23.7317 32.2308 24.06 31.7501C24.3884 31.2694 24.8058 30.7495 25.1891 30.0763C25.5723 29.4031 25.3807 28.3265 25.3807 28.3265C25.1366 29.5184 24.558 29.9807 24.558 29.9807C24.8827 29.6128 25.1891 28.2309 25.1891 28.2309L24.9022 27.9415C24.4042 28.2689 23.3899 30.6723 23.4851 30.3461C23.5803 30.0199 23.9453 29.0573 24.1552 28.7876C24.3652 28.5178 24.7106 27.7686 24.7106 27.7686L24.2102 27.3836L23.844 27.9599C23.844 27.9599 24.0551 27.364 23.9782 27.2242C23.905 27.1274 23.8054 27.0541 23.6914 27.0133C23.6914 27.0133 23.7866 26.8784 23.5376 27.1862C23.2886 27.4939 23.0982 28.7802 23.0982 28.7802C22.887 28.069 23.1739 26.9348 23.1739 26.9348C22.8998 27.5094 22.7739 28.144 22.8077 28.7802C22.8467 29.4534 22.234 30.5496 22.234 30.5496C22.0802 31.1848 21.7738 31.9536 21.6591 32.3007C21.5444 32.6477 21.6017 32.9738 21.6213 33.2228C21.6408 33.4717 21.6017 33.6274 21.3918 33.9732C21.2684 34.2069 21.1804 34.4577 21.1306 34.7175C20.9741 34.7424 20.8289 34.8145 20.7142 34.9242C20.5995 35.034 20.5207 35.1761 20.4883 35.3319C20.4559 35.4876 20.4713 35.6496 20.5326 35.7963C20.5939 35.943 20.6982 36.0675 20.8315 36.1534C19.7684 37.5329 19.1227 38.7885 18.7394 39.8884C15.932 40.6903 13.2785 41.4383 12.4021 41.6639C10.2746 42.2108 9.22852 42.7577 9.22852 42.7577C9.92182 48.6226 12.4448 58.7143 12.4448 58.7143C12.9404 58.2667 17.4493 57.173 17.6934 57.173C17.9375 57.173 18.9799 57.4182 19.1776 57.3716C19.3754 57.325 19.5731 57.6168 22.1461 57.0736C24.7191 56.5304 25.7579 54.7868 25.7579 54.7868C26.4512 54.5881 30.954 53.1927 30.954 53.1927C30.954 53.1927 27.8451 38.3409 27.6962 37.8431Z" fill="#272425"/>
<path d="M107.037 48.7023C106.449 48.8421 106.387 48.3921 106.387 48.3921L107.363 47.0727C107.363 47.0727 109.278 46.9342 110.023 47.1953C110.767 47.4565 110.633 47.2211 110.633 47.2211C110.633 47.2211 110.549 46.8434 110.068 46.6215C109.587 46.3995 109.282 45.8392 108.961 45.4701C108.64 45.101 107.826 44.1519 107.546 44.3052C107.267 44.4585 105.227 45.0286 104.708 45.1893C104.19 45.3499 103.529 44.6829 102.736 44.3309C101.942 43.979 98.565 42.3089 98.2525 42.1777C97.9401 42.0465 96.8537 41.4886 96.4985 41.5009C96.4985 41.5009 95.9078 44.9796 95.2999 48.5552C94.2221 46.8581 93.3469 44.5835 94.0073 42.1348C94.6103 39.9092 94.7043 38.5862 94.5614 37.7094C94.5785 37.7008 94.5956 37.6947 94.6127 37.6849C94.7962 37.5849 94.9583 37.4495 95.0896 37.2865C95.221 37.1234 95.319 36.9359 95.3781 36.7348C95.4371 36.5336 95.4561 36.3227 95.4339 36.1141C95.4117 35.9056 95.3487 35.7035 95.2486 35.5194C95.2007 35.4329 95.1451 35.3508 95.0826 35.2742C95.129 35.029 95.1705 34.7714 95.2047 34.4919C95.3121 33.4839 95.1119 33.4275 94.8275 32.7237C94.5431 32.0198 94.4809 31.7256 94.2172 31.2841C93.9753 30.8524 93.8035 30.3846 93.7082 29.8985C93.6069 29.4424 93.3787 29.1101 93.22 28.6846C93.0613 28.2591 93.076 27.7036 93.054 27.4412C93.0201 27.1443 92.9659 26.8502 92.8917 26.5608C92.8331 26.3156 92.4657 25.9477 92.4657 25.9477C92.4657 25.9477 92.5243 26.1929 92.6915 26.806C92.8587 27.4191 92.6524 27.359 92.5694 27.619C92.4938 27.9112 92.5165 28.2203 92.6341 28.4982C92.7562 28.8146 92.9771 30.8709 92.9088 30.4331C92.8153 29.9705 92.6826 29.5168 92.5121 29.077C92.3778 28.6932 92.3595 27.9905 92.3741 27.5258C92.3888 27.0611 92.0983 26.2138 91.9445 26.1512C91.7907 26.0887 91.1218 26.4186 91.1218 26.4186C91.1218 26.4186 91.1547 27.5516 91.1218 27.4817C91.0888 27.4118 90.9314 26.5007 90.9314 26.5007L90.6555 26.6147C90.6555 26.6147 90.3418 26.7496 90.3846 26.9642C90.4273 27.1788 91.4404 29.0009 91.4404 29.0009L91.3293 29.153C91.2793 29.1076 91.0351 28.9666 90.8411 28.2946C90.647 27.6227 90.0001 27.0537 90.0001 27.0537C90.1784 27.3279 90.3285 27.6196 90.448 27.9243C90.6921 28.5055 90.4993 28.6453 90.6653 29.0855C90.7873 29.4019 91.195 29.9095 91.416 30.1683C91.113 30.012 90.8308 29.818 90.5762 29.5907C90.3875 29.4317 90.2352 29.2335 90.1299 29.0098C90.0246 28.7861 89.9686 28.5421 89.9659 28.2946C89.8499 28.7054 89.5326 28.7851 90.3601 29.4681C91.1877 30.1511 92.9026 32.1658 92.7244 34.2368C92.6948 34.5601 92.6813 34.8846 92.6842 35.2092C92.4582 35.4588 92.3169 35.774 92.2806 36.1095C92.2444 36.4449 92.315 36.7832 92.4823 37.0758C92.6496 37.3683 92.905 37.6 93.2117 37.7374C93.5185 37.8749 93.8607 37.911 94.1892 37.8406C94.3256 38.8137 94.2566 39.8047 93.9865 40.7492C93.209 43.518 93.0906 45.5167 95.2706 48.7355C94.8532 51.1879 94.4345 53.655 94.1965 55.0529C93.6045 58.5255 94.332 58.9767 95.0118 59.4525C95.6917 59.9282 101.468 63.8018 103.222 63.6951L103.937 59.0024C103.937 59.0024 105.392 58.5708 106.213 57.6377C107.035 56.7045 107.944 55.601 108.329 55.0872C108.713 54.5734 109.624 53.4698 109.963 52.9818C110.302 52.4938 110.9 49.259 111.029 48.8262C111.081 48.5947 111.197 48.3825 111.363 48.2131C111.363 48.2131 107.624 48.5638 107.037 48.7023Z" fill="#272425"/>
<path d="M61.9409 22.5585C61.659 19.2477 61.7529 18.7769 61.7529 18.7769C61.7529 18.7769 60.1063 18.1159 59.3545 18.2103C59.3545 18.2103 58.2254 13.7678 58.0838 13.2001C57.9422 12.6323 57.7079 12.3025 57.6139 12.9168C57.6139 12.9168 53.4223 14.9327 49.8619 16.7414C47.2779 13.8855 48.3459 12.1321 49.0856 11.4098C49.1467 11.4931 49.2324 11.5549 49.3306 11.5862C49.4287 11.6176 49.5342 11.617 49.632 11.5845C49.7298 11.552 49.8149 11.4892 49.875 11.4052C49.9351 11.3212 49.9673 11.2202 49.9668 11.1168C49.9661 11.0987 49.964 11.0806 49.9607 11.0628C50.2134 10.8176 50.5527 10.511 50.8859 10.3774C51.4169 10.1628 52.6229 8.26829 52.4227 8.37497C52.2225 8.48165 52.0199 8.86545 52.0065 8.92553C51.993 8.98562 50.5124 10.0867 50.5124 10.0867C50.6433 9.96564 50.768 9.83796 50.8859 9.70417C51.042 9.52369 51.1637 9.31585 51.2448 9.09107C51.3168 8.89243 51.7184 8.60059 51.9625 8.46448C52.2066 8.32837 52.192 7.86855 52.192 7.86855C51.9971 7.982 51.8143 8.11511 51.6464 8.26584C51.5036 8.40317 51.3022 8.61653 51.2167 8.7085C51.0913 8.8082 50.9564 8.89527 50.8139 8.96845C51.0007 8.80046 50.9726 8.76981 51.3595 8.31121C51.7465 7.85261 51.9772 7.82073 51.9625 7.77658C51.9479 7.73244 51.6903 7.34864 51.6903 7.34864C51.5286 7.35271 51.3686 7.38336 51.2167 7.43938C51.0873 7.51663 51.0873 7.82195 50.958 8.0206C50.8286 8.21924 50.3696 8.81518 50.3696 8.81518C50.3843 8.7085 50.2549 8.40317 50.4551 8.31121C50.6553 8.21924 50.9287 7.43938 50.9287 7.43938C50.9287 7.43938 50.355 8.11256 50.211 8.34186C50.0669 8.57116 50.0242 8.96845 49.9668 9.32282C49.8986 9.67646 49.7347 10.0044 49.4932 10.2707C49.4026 10.3827 49.3394 10.5146 49.3089 10.6557C49.2146 10.69 49.133 10.7526 49.0754 10.8351C49.0177 10.9176 48.9867 11.016 48.9867 11.1168C48.9871 11.1638 48.9945 11.2105 49.0087 11.2553C48.1262 11.7961 48.0322 12.961 47.948 13.7212C47.8979 14.2007 48.7108 15.5262 49.6434 16.8529C47.2022 18.0963 45.1101 19.2183 44.9587 19.4856C44.5815 20.1477 44.8647 20.3366 44.8647 20.3366L45.3823 22.3684C45.3823 22.3684 48.5802 34.704 48.8158 35.4606C48.8158 35.4606 48.9098 35.8382 49.6153 35.3183C50.3208 34.7984 56.6728 31.8678 57.7079 31.1591C58.7429 30.4503 61.8469 29.0745 61.8469 29.0745L61.4771 27.4253C61.4771 27.4253 62.2241 25.8655 61.9409 22.5585Z" fill="#272425"/>
<path d="M154.09 17.7137C154.373 17.119 154.302 16.81 154.302 16.2423C154.302 15.6746 154.562 15.0075 154.491 14.3895C154.42 13.7715 154.751 11.8231 154.751 11.8231C154.516 12.0609 154.254 12.6311 154.141 12.9879C154.027 13.3448 153.833 14.0094 153.904 14.555C153.975 15.1007 153.597 16.8125 153.597 16.8125C153.809 15.9811 153.597 15.3876 153.62 14.864C153.643 14.3404 153.742 13.178 153.927 12.7255C154.113 12.2731 154.353 11.8464 154.353 11.8464L153.715 11.4908C153.715 11.4908 153.218 11.5141 153.105 11.5852C152.991 11.6563 152.892 12.2277 152.868 12.5355C152.843 12.8433 152.419 14.1516 152.419 14.1516C152.419 14.1516 152.514 13.5581 152.631 13.0345C152.748 12.511 152.892 11.5852 152.892 11.5852C152.892 11.5852 152.466 11.4429 152.489 11.5141C152.513 11.5852 152.063 12.4889 152.017 12.9401C151.971 13.3914 151.407 13.8904 151.163 14.6985C150.919 15.5066 151.233 17.6684 151.233 17.6684C150.926 17.2404 150.69 15.482 150.69 15.482C150.714 15.8143 150.643 17.0271 150.997 17.7162C151.351 18.4053 151.258 19.2367 151.069 19.9724C150.947 20.4261 150.947 21.114 150.969 21.575C150.802 21.6163 150.652 21.7048 150.534 21.8299C150.417 21.9549 150.338 22.1114 150.306 22.2804C150.275 22.4494 150.293 22.6239 150.358 22.7831C150.423 22.9422 150.532 23.0792 150.672 23.1777C150.672 23.1851 150.672 23.1912 150.663 23.1985C150.158 24.2751 147.988 26.5878 145.687 28.253C144.036 29.4485 142.816 31.4632 142.178 32.6366C141.785 30.7973 140.451 24.1562 140.294 23.6559L136.818 24.7595L137.315 25.2941L137.741 27.8593C137.741 27.8593 133.945 28.2873 133.591 28.394C133.237 28.5006 132.492 28.9641 132.208 29.0721C131.924 29.18 129.795 30.6036 130.115 30.7103C130.434 30.8169 131.037 31.1382 131.108 31.2449C131.179 31.3516 131.144 32.5287 131.391 33.0989C131.639 33.6691 131.782 34.8806 131.924 35.3441C132.119 35.8845 132.356 36.4088 132.633 36.9124C132.776 37.1576 133.308 38.0883 133.379 38.4452C133.449 38.802 133.84 39.9056 133.805 40.3335C133.769 40.7614 133.697 42.2954 133.982 42.5407C134.266 42.7859 134.726 42.6118 134.726 42.6118L135.081 43.1464C135.081 43.1464 136.572 42.8264 137.104 42.754C137.636 42.6817 140.651 42.0416 140.651 42.0416C140.651 42.0416 140.935 43.6455 140.935 43.9667C140.935 44.288 140.9 44.8925 140.9 44.8925L144.341 44.8214C144.341 44.8214 144.518 43.6099 144.341 42.9686C144.172 42.3555 142.559 34.2957 142.311 33.2117C142.731 32.2314 143.27 31.3069 143.915 30.4589C145.264 28.6772 147.037 27.4657 148.101 26.7521C149.078 26.0961 150.723 23.6866 150.976 23.3114C151.045 23.3285 151.116 23.3375 151.187 23.3383C151.413 23.3382 151.631 23.2515 151.796 23.0959C151.961 22.9404 152.06 22.7276 152.074 22.5008C152.455 22.1109 152.945 21.5407 152.962 21.3715C153.043 20.7122 153.178 20.0606 153.363 19.4231C153.576 18.7805 155.871 16.4054 155.871 16.4054C154.965 16.81 153.805 18.3097 154.09 17.7137Z" fill="#272425"/>
<path d="M165.888 45.5449L164.495 42.3236L153.388 48.1812C153.388 48.1812 155.555 53.1706 156.737 55.9063C156.027 57.0957 155.602 58.4703 155.958 59.8988C156.731 62.9974 157.477 65.9648 157.699 67.5331C157.51 67.5795 157.338 67.6776 157.202 67.8164C157.03 67.9901 156.923 68.2177 156.897 68.4613C156.872 68.7048 156.931 68.9498 157.063 69.1554C156.92 69.8911 156.854 71.2277 157.831 72.2356C159.228 73.6777 161.973 74.8364 163.139 76.3728C164.305 77.9093 165.58 78.9479 166.027 79.1637C166.027 79.1637 164.279 77.0914 163.766 76.4869C163.766 76.4869 166.004 78.8596 166.837 78.3912L167.346 77.5954C167.346 77.5954 166.137 76.8057 165.298 76.2465C165.298 76.2465 166.95 76.9651 167.554 77.149L168.042 76.1914C168.042 76.1914 167.852 75.5194 166.794 75.0375C166.602 74.9515 166.405 74.879 166.204 74.8205C164.617 74.3582 163.089 74.0369 162.664 73.6642C162.664 73.6642 166.197 74.2601 167.18 74.8168C167.18 74.8168 165.155 73.3539 163.714 73.078C162.762 72.9027 161.876 72.4699 161.151 71.8261C160.964 71.6397 160.496 70.568 160.052 70.1266C159.776 69.8507 159.337 69.3393 158.961 68.9322C159.019 68.7703 159.037 68.5967 159.014 68.4261C158.992 68.2555 158.928 68.0929 158.829 67.9522C158.731 67.8115 158.6 67.6967 158.448 67.6175C158.295 67.5384 158.127 67.4973 157.955 67.4976C157.935 67.322 157.894 67.1494 157.833 66.9838C157.599 66.3768 156.136 59.1018 156.368 57.9344C156.49 57.4169 156.696 56.9234 156.979 56.474C157.108 56.772 157.223 57.0283 157.301 57.2208C158.091 59.0601 159.668 62.67 159.72 62.7743C159.773 62.8785 161.806 61.9294 162.824 61.4254C163.842 60.9215 170.88 57.5445 170.88 57.5445L169.749 54.7941C169.749 54.7941 170.553 53.0345 170.26 51.2774C169.967 49.5202 168.155 45.9851 167.501 45.5939L165.888 45.5449Z" fill="#272425"/>
<path d="M94.3925 16.9143C93.936 16.5084 93.6895 16.2717 93.6895 16.2717C93.7615 16.3956 94.0166 16.6224 94.3925 16.9143Z" fill="#272425"/>
<path d="M115.183 39.3611L115.163 39.3538C115.169 39.3571 115.176 39.3596 115.183 39.3611Z" fill="#272425"/>
<path d="M114.805 38.3176C114.868 37.3992 114.259 36.9774 113.943 36.7665C113.627 36.5556 112.022 35.3306 111.895 35.1087C111.803 34.9456 110.933 34.5605 110.467 34.2577C110.543 34.0867 110.582 33.9016 110.582 33.7145C110.582 33.4249 110.49 33.1429 110.318 32.9102C110.147 32.6774 109.905 32.5063 109.63 32.422C109.632 32.2832 109.625 32.1443 109.609 32.0064C109.414 30.3007 107.984 28.0151 106.422 26.9103C104.775 25.7466 105.014 24.7681 105.121 24.5044C105.56 24.7497 106.008 24.9892 106.463 25.223C113.878 29.0414 117.804 30.1057 117.804 30.1057L111.945 27.2266L111.634 25.223L114.685 19.5261L111.634 17.5224L110.388 18.5868L110.45 16.9596C110.45 16.9596 107.398 14.2056 104.225 14.7684C104.225 14.7684 101.109 19.6511 101.295 21.5297C101.295 21.5297 96.2994 18.3869 94.3965 16.913C97.5671 19.6993 101.009 22.1576 104.67 24.2506C104.535 24.5535 104.23 25.6632 106.238 27.0832C107.824 28.2015 109.083 30.7446 109.241 32.1253C109.249 32.2048 109.249 32.2849 109.241 32.3644C108.954 32.3623 108.674 32.4527 108.441 32.6226C108.209 32.7924 108.037 33.0326 107.951 33.3079C107.864 33.5832 107.868 33.879 107.962 34.152C108.055 34.4249 108.233 34.6605 108.47 34.8242C108.556 35.1939 108.723 35.5399 108.958 35.837C109.746 36.8499 111.132 38.0847 111.899 38.9712C112.665 39.8577 112.151 40.5223 111.921 40.9871C112.154 40.7705 112.315 40.4865 112.382 40.1741C112.504 39.6468 112.32 38.8449 112.288 38.8449C112.48 39.0849 112.617 39.3642 112.689 39.6631C112.762 39.9621 112.768 40.2734 112.708 40.5751C112.498 41.5989 112.719 41.2397 112.961 41.6725C112.961 41.6725 112.676 41.1232 112.839 40.7332C113.001 40.3433 113.028 39.4568 112.86 39.0031C112.693 38.5494 112.461 37.8995 112.45 37.8639C112.439 37.8284 114.005 38.6867 114.152 39.7204C114.298 40.7541 114.614 40.8706 114.782 40.9969C114.782 40.9969 114.152 39.5254 114.163 38.8768C114.174 38.2281 114.041 37.8848 113.648 37.4936C113.648 37.4936 114.53 37.6518 114.635 38.5175C114.734 39.3366 115.05 39.3145 115.172 39.3538C115.08 39.317 114.75 39.1196 114.805 38.3176Z" fill="#272425"/>
</g>
<defs>
<clipPath id="clip0_31_36">
<rect width="204" height="118" fill="white"/>
</clipPath>
</defs>
</svg>
