<svg width="24" height="25" viewBox="0 0 24 25" fill="none" xmlns="http://www.w3.org/2000/svg">
<path d="M12 21.0035C10.7369 19.9261 9.56619 18.745 8.5 17.4725C6.9 15.5615 5 12.7155 5 10.0035C4.99931 8.61847 5.40951 7.26436 6.17869 6.11254C6.94788 4.96072 8.04147 4.06297 9.32107 3.53291C10.6007 3.00285 12.0087 2.8643 13.3671 3.1348C14.7255 3.4053 15.9731 4.07269 16.952 5.05251C17.6038 5.70137 18.1203 6.47305 18.4719 7.32288C18.8234 8.17272 19.0029 9.08384 19 10.0035C19 12.7155 17.1 15.5615 15.5 17.4725C14.4338 18.745 13.2631 19.9261 12 21.0035ZM12 7.00351C11.2044 7.00351 10.4413 7.31958 9.87868 7.88219C9.31607 8.4448 9 9.20786 9 10.0035C9 10.7992 9.31607 11.5622 9.87868 12.1248C10.4413 12.6874 11.2044 13.0035 12 13.0035C12.7957 13.0035 13.5587 12.6874 14.1213 12.1248C14.6839 11.5622 15 10.7992 15 10.0035C15 9.20786 14.6839 8.4448 14.1213 7.88219C13.5587 7.31958 12.7957 7.00351 12 7.00351Z" fill="white"/>
</svg>
