<svg width="24" height="25" viewBox="0 0 24 25" fill="none" xmlns="http://www.w3.org/2000/svg">
<path d="M6 4.50342C5.20435 4.50342 4.44129 4.81949 3.87868 5.3821C3.31607 5.94471 3 6.70777 3 7.50342V7.80492L12 12.6514L21 7.80642V7.50342C21 6.70777 20.6839 5.94471 20.1213 5.3821C19.5587 4.81949 18.7956 4.50342 18 4.50342H6ZM21 9.50892L12.3555 14.1634C12.2462 14.2222 12.1241 14.253 12 14.253C11.8759 14.253 11.7538 14.2222 11.6445 14.1634L3 9.50892V16.5034C3 17.2991 3.31607 18.0621 3.87868 18.6247C4.44129 19.1873 5.20435 19.5034 6 19.5034H18C18.7956 19.5034 19.5587 19.1873 20.1213 18.6247C20.6839 18.0621 21 17.2991 21 16.5034V9.50892Z" fill="white"/>
</svg>
