<svg width="24" height="25" viewBox="0 0 24 25" fill="none" xmlns="http://www.w3.org/2000/svg">
<path d="M16.6667 2.66992H7.33333C6.97971 2.66992 6.64057 2.8104 6.39052 3.06045C6.14048 3.31049 6 3.64963 6 4.00326V20.0033C6 20.3569 6.14048 20.696 6.39052 20.9461C6.64057 21.1961 6.97971 21.3366 7.33333 21.3366H16.6667C17.0203 21.3366 17.3594 21.1961 17.6095 20.9461C17.8595 20.696 18 20.3569 18 20.0033V4.00326C18 3.64963 17.8595 3.31049 17.6095 3.06045C17.3594 2.8104 17.0203 2.66992 16.6667 2.66992ZM12.6667 20.0033H11.3333V18.6699H12.6667V20.0033ZM7.33333 17.3366V4.00326H16.6667V17.3366H7.33333Z" fill="white"/>
</svg>
