<svg width="24" height="25" viewBox="0 0 24 25" fill="none" xmlns="http://www.w3.org/2000/svg">
<path d="M16.8323 20.9998C13.1652 20.9951 9.64968 19.5333 7.05665 16.9351C4.46361 14.337 3.00475 10.8144 3 7.14004C3 6.04206 3.43531 4.98905 4.21016 4.21266C4.98501 3.43627 6.03593 3.0001 7.13174 3.0001C7.36378 2.99833 7.59543 3.01943 7.82335 3.0631C8.04369 3.09577 8.2603 3.15003 8.47006 3.2251C8.61759 3.27697 8.74905 3.36652 8.85144 3.4849C8.95384 3.60328 9.02362 3.7464 9.05389 3.90009L10.2844 9.30001C10.3176 9.44659 10.3136 9.59915 10.2728 9.74378C10.232 9.88841 10.1557 10.0205 10.0509 10.128C9.93413 10.254 9.92515 10.263 8.82036 10.839C9.70508 12.7837 11.2574 14.3455 13.1946 15.2399C13.7784 14.1239 13.7874 14.1149 13.9132 13.9979C14.0205 13.8929 14.1523 13.8165 14.2966 13.7756C14.441 13.7347 14.5932 13.7307 14.7395 13.7639L20.1287 14.9969C20.2772 15.0314 20.4145 15.1033 20.5276 15.2056C20.6408 15.3079 20.726 15.4374 20.7754 15.5819C20.8513 15.7955 20.9084 16.0154 20.9461 16.2389C20.9823 16.4651 21.0003 16.6938 21 16.9229C20.9834 18.0162 20.5359 19.0585 19.7551 19.8223C18.9742 20.5862 17.9235 21.0095 16.8323 20.9998Z" fill="white"/>
</svg>
