<svg width="24" height="24" viewBox="0 0 24 24" fill="none" xmlns="http://www.w3.org/2000/svg">
<path d="M19.3214 5.56315C19.1695 5.48474 19.0216 5.39876 18.8782 5.30555C18.4616 5.02969 18.0796 4.70468 17.7406 4.33755C16.891 3.36795 16.5742 2.38235 16.459 1.69275H16.4638C16.3662 1.12155 16.4062 0.751953 16.411 0.751953H12.547V15.6928C12.547 15.8944 12.547 16.0912 12.5374 16.288C12.5374 16.312 12.5342 16.336 12.5326 16.36C12.5326 16.3696 12.5326 16.3808 12.5294 16.3936C12.5294 16.3968 12.5294 16.3984 12.5294 16.4032C12.4886 16.9391 12.3166 17.4569 12.0287 17.9108C11.7408 18.3648 11.3457 18.741 10.8782 19.0064C10.3912 19.2836 9.84027 19.4292 9.27982 19.4288C7.47982 19.4288 6.02062 17.96 6.02062 16.1488C6.02062 14.3376 7.47982 12.8688 9.27982 12.8688C9.62048 12.8683 9.95906 12.9218 10.283 13.0272L10.2878 9.09435C9.30387 8.96704 8.30422 9.04505 7.35194 9.32346C6.39965 9.60188 5.51541 10.0747 4.75502 10.712C4.08967 11.2907 3.53036 11.981 3.10222 12.752C2.93902 13.0336 2.32462 14.1632 2.25102 15.9968C2.20302 17.0384 2.51822 18.1168 2.66542 18.5616V18.5712C2.75822 18.8336 3.12142 19.7296 3.71342 20.4848C4.19169 21.0907 4.7567 21.6228 5.39022 22.064V22.0544L5.39982 22.064C7.26862 23.3328 9.34542 23.2512 9.34542 23.2512C9.70542 23.2368 10.9086 23.2512 12.2734 22.6032C13.7886 21.8848 14.651 20.816 14.651 20.816C15.2021 20.1774 15.6403 19.4497 15.947 18.664C16.2974 17.744 16.4126 16.6432 16.4126 16.2016V8.27355C16.4606 8.30235 17.0846 8.71515 17.0846 8.71515C17.0846 8.71515 17.9854 9.29115 19.3886 9.66875C20.3966 9.93595 21.7534 9.99355 21.7534 9.99355V6.15355C21.2734 6.20315 20.3086 6.05595 19.3214 5.56315Z" fill="white"/>
</svg>
